<svg fill="none" height="24" viewBox="0 0 24 24" width="24" xmlns="http://www.w3.org/2000/svg"><path d="m9.6257 7.33815c-.48882.73923-1.62573 1.80072-1.62573 2.66185 0 .9972 1.06264 3.0054 2.44273 4.3684 1.38 1.3631 2.5476 2.1316 3.5573 2.1316.6874 0 1.0328-1.6579 2.8689-1.6579 1.377 0 3.1311 1.5 3.6311 3.1579.2867.9506-.8361 1.8088-2.0952 2.4062-.9871.4685-2.0938.637-3.1814.5323-1.9865-.1911-4.8188-.9762-8.22342-4.2017-3.90152-4.2368-4.0985-7.01242-4.00001-9.72295.0985-2.71053 2.50001-4.01385 3.31159-4.01385.75293 0 3.11285 2.03844 3.45004 3.64692.05023.23957-.00089.48705-.1359.69123z" fill="#b1b5b4"/></svg>