<svg fill="none" height="17" viewBox="0 0 12 17" width="12" xmlns="http://www.w3.org/2000/svg"><g fill="#bf925a"><path d="m9.20213 10.736c-.17675 0-.32022.1435-.32022.3202 0 1.5889-1.29305 2.882-2.882 2.882-.17675 0-.32022.1435-.32022.3202 0 .1768.14347.3203.32022.3203 1.94246 0 3.52244-1.58 3.52244-3.5225 0-.1767-.14347-.3202-.32022-.3202z"/><path d="m7.93851 3.13011c-.60267-.85563-1.17136-1.66451-1.66386-2.485553-.11591-.192783-.43357-.192783-.54951 0-.4925.821043-1.0612 1.629923-1.66386 2.485553-1.72342 2.4484-3.505128 4.97943-3.505128 7.92609 0 3.0018 2.441988 5.4438 5.443738 5.4438s5.44381-2.442 5.44381-5.4438c-.0001-2.94663-1.78177-5.47766-3.50519-7.92609zm-1.93865 12.72939c-2.64887 0-4.80333-2.1544-4.80333-4.8033 0-2.74363 1.72215-5.19075 3.38857-7.55783.47969-.68207.97348-1.38336 1.41473-2.07952.44125.69616.93504 1.39745 1.41473 2.07952 1.66649 2.36708 3.38864 4.8142 3.38864 7.55783 0 2.6489-2.15447 4.8033-4.80334 4.8033z"/></g></svg>