<svg fill="none" height="40" viewBox="0 0 40 40" width="40" xmlns="http://www.w3.org/2000/svg"><circle cx="20" cy="20" fill="#4e6297" r="20"/><path d="m29 13.8186c0-1.4974-1.3212-2.8186-2.8187-2.8186h-11.3627c-1.4974 0-2.8186 1.3212-2.8186 2.8186v11.3627c0 1.4974 1.3212 2.8187 2.8186 2.8187h5.7254v-6.4301h-2.1139v-2.8186h2.1139v-1.1451c0-1.9378 1.4094-3.6114 3.171-3.6114h2.2902v2.8187h-2.2902c-.2642 0-.5285.2642-.5285.7927v1.1451h2.8187v2.8186h-2.8187v6.4301h2.9948c1.4975 0 2.8187-1.3213 2.8187-2.8187z" fill="#fff"/></svg>