<svg fill="none" height="40" viewBox="0 0 40 40" width="40" xmlns="http://www.w3.org/2000/svg" xmlns:xlink="http://www.w3.org/1999/xlink"><linearGradient id="a" gradientUnits="userSpaceOnUse" x1="8.5" x2="35" y1="35.5" y2="8"><stop offset="0" stop-color="#eea054"/><stop offset=".502762" stop-color="#d64763"/><stop offset="1" stop-color="#b62a99"/></linearGradient><circle cx="20" cy="20" fill="url(#a)" r="20"/><path d="m26.5808 12h-12.1616c-1.373 0-2.4192 1.0462-2.4192 2.4192v12.1616c0 1.373 1.0462 2.4192 2.4192 2.4192h12.1616c1.373 0 2.4192-1.0462 2.4192-2.4192v-12.1616c0-1.373-1.0462-2.4192-2.4192-2.4192zm-6.0808 13.6c2.8115 0 5.1-2.2231 5.1-4.9038 0-.4577-.0654-.9808-.1962-1.3731h1.4385v6.9307c0 .327-.2615.6539-.6538.6539h-11.377c-.3269 0-.6538-.2615-.6538-.6539v-6.9961h1.5038c-.1307.4577-.1961.9154-.1961 1.3731-.0654 2.7461 2.2231 4.9692 5.0346 4.9692zm0-1.9615c-1.8308 0-3.2692-1.4385-3.2692-3.2039s1.4384-3.2038 3.2692-3.2038 3.2692 1.4384 3.2692 3.2038c0 1.8308-1.4384 3.2039-3.2692 3.2039zm6.2769-6.9962c0 .3923-.3269.7192-.7192.7192h-1.8308c-.3923 0-.7192-.3269-.7192-.7192v-1.7654c0-.3923.3269-.7192.7192-.7192h1.8308c.3923 0 .7192.3269.7192.7192z" fill="#fff"/></svg>