<svg fill="none" height="21" viewBox="0 0 18 21" width="18" xmlns="http://www.w3.org/2000/svg"><path clip-rule="evenodd" d="m9 21c2 0 9-5.25 9-11.55s-4.0294-9.45-9-9.45c-4.97056 0-9 3.15-9 9.45s7 11.55 9 11.55zm-2.54995-12.74995c0-1.40833 1.14167-2.55 2.55-2.55 1.40835 0 2.54995 1.14167 2.54995 2.55 0 1.40832-1.1416 2.54995-2.54995 2.54995-1.40833 0-2.55-1.14163-2.55-2.54995zm2.55-3.95c-2.18153 0-3.95 1.76847-3.95 3.95 0 2.18155 1.76847 3.94995 3.95 3.94995 2.18155 0 3.94995-1.7684 3.94995-3.94995 0-2.18153-1.7684-3.95-3.94995-3.95z" fill="#b1b5b4" fill-rule="evenodd"/></svg>