<?xml version="1.0" encoding="UTF-8" standalone="no"?>
<!DOCTYPE svg PUBLIC "-//W3C//DTD SVG 1.1//EN" "http://www.w3.org/Graphics/SVG/1.1/DTD/svg11.dtd">
<svg xmlns="http://www.w3.org/2000/svg" version="1.1" viewBox="0.00 0.00 1530.00 638.00">
<g stroke-width="2.00" fill="none" stroke-linecap="butt">
<path stroke="#acd39f" vector-effect="non-scaling-stroke" d="
  M 299.61 92.83
  Q 306.81 117.61 316.81 141.25
  Q 327.30 166.02 339.72 190.11
  Q 340.35 191.34 340.25 189.96
  Q 338.04 159.62 335.36 128.79
  Q 334.26 116.20 332.80 109.84
  C 329.88 97.19 324.23 84.68 317.39 73.97
  C 310.70 63.49 293.31 41.93 278.43 46.61
  C 240.52 58.55 328.38 195.15 341.42 215.16
  A 0.29 0.29 0.0 0 0 341.95 215.02
  C 342.19 211.28 341.70 208.35 340.05 204.73
  Q 323.38 168.06 310.20 130.00
  Q 303.86 111.71 299.42 92.88
  A 0.10 0.10 0.0 0 1 299.61 92.83"
/>
<path stroke="#80958e" vector-effect="non-scaling-stroke" d="
  M 139.11 123.49
  Q 141.52 124.08 142.28 124.39
  C 204.35 149.99 263.10 184.51 318.55 222.17
  C 322.16 224.62 325.10 225.98 329.05 226.96
  A 0.35 0.35 0.0 0 0 329.38 226.38
  C 302.96 199.61 274.66 174.85 244.72 152.29
  Q 212.83 128.25 177.14 110.19
  Q 170.16 106.66 152.48 100.02
  Q 118.37 87.21 84.16 93.17
  C 46.66 99.70 79.72 125.11 91.38 132.67
  C 122.29 152.70 155.00 167.93 189.93 179.50
  Q 242.96 197.06 294.55 215.02
  Q 297.26 215.96 294.94 214.28
  C 246.28 179.00 193.41 145.95 139.09 123.57
  A 0.04 0.04 0.0 0 1 139.11 123.49"
/>
<path stroke="#9f9286" vector-effect="non-scaling-stroke" d="
  M 417.92 146.97
  C 401.60 165.34 388.93 186.56 378.27 208.69
  A 0.25 0.25 0.0 0 0 378.64 209.01
  Q 391.74 200.45 404.78 191.67
  Q 418.30 182.56 421.10 180.13
  Q 436.44 166.84 439.50 146.03
  C 440.51 139.16 438.51 129.67 432.44 125.55
  C 417.92 115.71 402.76 137.86 395.91 147.74
  Q 390.30 155.82 386.81 162.29
  Q 371.56 190.55 359.94 220.52
  A 0.33 0.33 0.0 0 0 360.41 220.92
  C 363.92 218.92 366.94 217.21 369.10 213.52
  C 382.50 190.57 398.70 165.95 417.74 146.80
  A 0.12 0.12 0.0 0 1 417.92 146.97"
/>
<path stroke="#80958e" vector-effect="non-scaling-stroke" d="
  M 609.78 284.03
  Q 609.62 261.80 610.02 239.46
  C 610.17 231.46 612.84 228.46 616.54 222.77
  Q 616.88 222.25 616.26 222.25
  L 589.47 222.25
  A 0.43 0.43 0.0 0 0 589.15 222.97
  Q 596.22 230.72 596.19 241.50
  Q 596.02 295.78 596.01 350.07
  C 596.01 361.56 596.08 367.84 589.19 375.66
  A 0.44 0.44 0.0 0 0 589.52 376.40
  L 616.49 376.42
  A 0.36 0.36 0.0 0 0 616.76 375.81
  C 609.41 367.72 609.78 360.90 609.77 348.67
  Q 609.76 322.24 609.74 295.77
  Q 609.74 293.14 610.91 291.51
  Q 612.27 289.62 614.27 288.17
  Q 614.71 287.85 615.03 288.30
  Q 638.66 321.47 662.48 354.51
  C 668.03 362.19 676.64 372.85 685.74 375.32
  Q 693.44 377.41 701.38 375.55
  C 705.56 374.57 707.89 372.77 710.59 369.60
  Q 712.84 366.95 709.57 368.13
  C 705.35 369.64 696.38 370.39 692.22 367.27
  C 685.35 362.12 681.40 356.41 674.35 347.19
  Q 648.82 313.79 623.38 280.08
  Q 623.05 279.64 623.43 279.24
  Q 643.95 257.86 664.77 236.76
  Q 674.61 226.79 687.81 222.68
  A 0.25 0.25 0.0 0 0 687.74 222.19
  L 660.47 222.28
  Q 659.76 222.28 660.13 222.89
  Q 663.29 228.00 659.26 232.27
  Q 634.80 258.21 610.18 284.19
  A 0.23 0.23 0.0 0 1 609.78 284.03"
/>
<path stroke="#d7aa91" vector-effect="non-scaling-stroke" d="
  M 402.58 534.46
  C 414.93 558.11 439.30 574.56 466.40 573.89
  C 507.12 572.88 535.19 540.93 540.58 501.72
  C 543.09 483.39 541.17 464.18 536.63 445.78
  C 524.27 395.70 495.24 349.31 458.48 313.26
  C 426.14 281.55 387.72 254.42 346.19 236.05
  A 0.14 0.13 80.3 0 0 346.04 236.27
  C 370.46 263.47 390.86 297.47 404.55 329.08
  C 419.90 364.52 407.45 395.23 397.30 430.36
  C 393.71 442.79 391.07 454.78 389.75 466.49
  Q 385.71 502.13 402.58 534.46"
/>
<path stroke="#80b29c" vector-effect="non-scaling-stroke" d="
  M 163.48 283.36
  Q 189.93 274.27 220.39 268.67
  Q 272.18 259.15 321.22 256.34
  C 324.92 256.13 328.37 253.43 331.31 251.46
  A 0.40 0.40 0.0 0 0 331.15 250.73
  C 294.37 245.97 117.37 226.95 115.00 289.25
  C 114.10 313.01 141.49 324.23 160.66 326.62
  Q 190.27 330.29 217.23 319.48
  Q 224.09 316.73 234.94 310.24
  Q 272.56 287.72 309.07 265.21
  Q 311.06 263.99 308.72 264.02
  Q 257.18 264.61 208.00 272.54
  Q 187.10 275.91 163.55 283.57
  A 0.11 0.11 0.0 0 1 163.48 283.36"
/>
<path stroke="#80958e" vector-effect="non-scaling-stroke" d="
  M 742.71 325.12
  L 783.21 325.16
  Q 783.74 325.16 783.94 325.64
  Q 791.72 343.60 799.43 361.60
  C 801.83 367.20 803.01 371.13 798.63 375.60
  A 0.47 0.46 22.0 0 0 798.97 376.39
  L 822.28 376.42
  A 0.50 0.49 62.6 0 0 822.56 375.52
  Q 815.68 370.67 812.33 362.91
  Q 789.32 309.54 766.46 256.26
  A 0.43 0.43 0.0 0 0 765.67 256.26
  Q 743.04 307.66 720.26 358.90
  C 716.71 366.88 713.17 371.62 706.11 375.86
  A 0.30 0.30 0.0 0 0 706.27 376.42
  L 724.77 376.42
  Q 725.37 376.42 725.11 375.87
  Q 722.67 370.73 725.34 364.26
  Q 733.34 344.86 741.86 325.67
  Q 742.11 325.12 742.71 325.12"
/>
<path stroke="#80958e" vector-effect="non-scaling-stroke" d="
  M 953.95 325.12
  L 994.72 325.14
  A 0.48 0.47 77.2 0 1 995.15 325.42
  Q 1002.97 343.58 1010.85 361.92
  C 1013.24 367.47 1014.06 371.15 1009.91 375.65
  A 0.45 0.45 0.0 0 0 1010.24 376.40
  L 1033.74 376.43
  A 0.45 0.45 0.0 0 0 1033.99 375.61
  Q 1027.39 371.13 1024.00 363.34
  Q 1000.66 309.67 977.89 256.66
  Q 977.34 255.38 976.78 256.66
  Q 954.10 308.11 932.36 357.12
  C 928.39 366.05 925.21 371.36 917.36 375.86
  A 0.28 0.28 0.0 0 0 917.50 376.39
  L 936.49 376.42
  Q 937.14 376.42 936.78 375.88
  C 933.84 371.40 935.09 368.13 937.19 363.06
  Q 944.96 344.29 953.09 325.68
  Q 953.33 325.12 953.95 325.12"
/>
<path stroke="#80958e" vector-effect="non-scaling-stroke" d="
  M 1207.75 325.12
  L 1248.46 325.14
  A 0.61 0.61 0.0 0 1 1249.02 325.51
  Q 1257.17 344.44 1265.41 363.57
  Q 1268.39 370.50 1263.75 375.81
  Q 1263.23 376.40 1264.02 376.40
  L 1287.51 376.43
  A 0.45 0.45 0.0 0 0 1287.77 375.61
  Q 1281.22 370.99 1278.01 363.61
  Q 1254.59 309.88 1231.50 256.16
  A 0.35 0.34 45.7 0 0 1230.87 256.15
  Q 1207.67 308.69 1184.33 361.17
  Q 1180.17 370.52 1171.36 375.83
  A 0.29 0.29 0.0 0 0 1171.51 376.37
  L 1190.26 376.44
  Q 1190.89 376.44 1190.57 375.89
  C 1189.52 374.05 1188.58 372.66 1188.89 370.42
  Q 1189.39 366.69 1190.63 363.69
  Q 1196.57 349.34 1207.00 325.62
  Q 1207.21 325.12 1207.75 325.12"
/>
<path stroke="#80958e" vector-effect="non-scaling-stroke" d="
  M 844.35 352.75
  C 844.33 361.45 843.80 370.28 836.78 375.79
  A 0.34 0.34 0.0 0 0 836.99 376.40
  L 905.25 376.43
  Q 905.88 376.43 906.10 375.84
  L 915.93 350.21
  Q 916.66 348.31 915.44 349.94
  C 907.75 360.21 902.12 368.28 888.18 369.91
  C 881.36 370.71 866.13 371.81 860.48 368.09
  C 855.76 364.98 855.90 359.49 855.89 354.50
  Q 855.81 314.37 855.75 274.25
  Q 855.74 265.95 860.23 259.26
  A 0.31 0.31 0.0 0 0 859.97 258.77
  L 840.49 258.76
  A 0.49 0.49 0.0 0 0 840.09 259.53
  C 843.75 264.94 844.29 269.89 844.31 277.06
  Q 844.43 314.91 844.35 352.75"
/>
<path stroke="#80958e" vector-effect="non-scaling-stroke" d="
  M 1137.74 312.75
  L 1067.26 312.74
  A 0.52 0.52 0.0 0 1 1066.74 312.22
  Q 1066.69 292.77 1066.77 273.24
  Q 1066.80 265.64 1071.00 259.33
  Q 1071.37 258.77 1070.71 258.77
  L 1051.26 258.77
  Q 1050.51 258.77 1050.93 259.40
  Q 1055.15 265.79 1055.20 272.82
  Q 1055.36 293.77 1055.21 360.50
  Q 1055.19 369.26 1051.02 375.89
  Q 1050.70 376.39 1051.30 376.40
  L 1070.52 376.40
  Q 1071.23 376.40 1070.85 375.81
  Q 1066.83 369.58 1066.77 360.74
  Q 1066.61 339.95 1066.77 318.99
  Q 1066.77 318.50 1067.26 318.50
  L 1137.98 318.49
  A 0.46 0.45 -0.0 0 1 1138.44 318.94
  Q 1138.55 340.46 1138.37 362.00
  Q 1138.31 369.74 1134.08 375.92
  A 0.32 0.32 0.0 0 0 1134.34 376.42
  L 1153.99 376.41
  A 0.29 0.29 0.0 0 0 1154.23 375.95
  Q 1149.97 369.72 1149.95 362.00
  Q 1149.83 317.62 1149.94 273.25
  Q 1149.96 265.53 1154.11 259.47
  Q 1154.57 258.79 1153.75 258.79
  L 1134.49 258.80
  A 0.42 0.41 -17.1 0 0 1134.14 259.45
  Q 1138.41 265.63 1138.47 273.50
  Q 1138.62 292.81 1138.38 312.12
  Q 1138.38 312.75 1137.74 312.75"
/>
<path stroke="#80958e" vector-effect="non-scaling-stroke" d="
  M 1321.51 318.26
  L 1337.01 318.26
  A 1.93 1.93 0.0 0 1 1338.53 319.00
  C 1351.69 335.60 1365.15 353.64 1380.46 367.52
  C 1388.40 374.72 1395.81 377.74 1406.12 375.93
  C 1408.61 375.49 1413.97 373.41 1413.46 369.97
  A 0.74 0.73 85.2 0 0 1412.71 369.33
  Q 1410.83 369.39 1406.50 369.51
  C 1400.07 369.70 1391.64 363.77 1386.88 359.39
  C 1373.41 347.00 1362.42 331.71 1350.77 317.62
  A 0.43 0.43 0.0 0 1 1350.97 316.93
  C 1359.44 314.19 1368.17 309.91 1372.97 302.03
  C 1378.87 292.38 1377.34 279.18 1369.69 271.10
  C 1361.46 262.41 1347.20 259.10 1334.99 258.91
  Q 1317.41 258.63 1305.60 258.84
  Q 1304.97 258.85 1305.31 259.38
  Q 1309.46 265.90 1309.48 274.25
  Q 1309.57 318.50 1309.25 362.75
  Q 1309.20 370.06 1305.22 375.87
  A 0.35 0.35 0.0 0 0 1305.51 376.42
  L 1325.12 376.41
  A 0.31 0.31 0.0 0 0 1325.37 375.92
  Q 1321.26 370.18 1321.16 362.88
  Q 1320.87 340.81 1321.03 318.74
  Q 1321.03 318.26 1321.51 318.26"
/>
<path stroke="#80958e" vector-effect="non-scaling-stroke" d="
  M 1426.95 359.75
  C 1426.94 366.16 1425.99 370.42 1422.64 375.80
  Q 1422.26 376.41 1422.98 376.41
  L 1442.46 376.42
  Q 1443.00 376.42 1442.71 375.97
  C 1438.05 368.68 1438.45 363.34 1438.44 353.05
  Q 1438.41 312.65 1438.70 272.25
  Q 1438.75 265.03 1442.73 259.30
  A 0.32 0.32 0.0 0 0 1442.47 258.80
  L 1423.02 258.79
  Q 1422.35 258.79 1422.71 259.35
  Q 1426.91 265.88 1426.93 273.75
  Q 1427.03 316.75 1426.95 359.75"
/>
<path stroke="#a7a58c" vector-effect="non-scaling-stroke" d="
  M 304.49 370.90
  Q 304.47 370.73 304.55 370.48
  Q 308.70 357.26 314.40 344.61
  Q 329.67 310.73 349.46 279.29
  C 351.11 276.67 351.38 274.30 351.35 271.38
  Q 351.34 270.79 350.84 271.10
  Q 327.70 285.65 308.48 303.22
  C 286.97 322.88 259.70 354.50 276.84 385.26
  C 287.70 404.76 310.54 411.46 327.85 394.60
  C 337.12 385.58 341.14 373.54 342.52 360.48
  Q 347.30 315.32 349.17 295.68
  Q 349.27 294.65 348.64 295.46
  C 331.13 318.10 314.58 343.89 304.79 370.86
  Q 304.56 371.49 304.49 370.90"
/>
<path stroke="#d7aa91" vector-effect="non-scaling-stroke" d="
  M 903.59 472.29
  C 911.88 439.78 938.24 422.60 970.76 422.79
  C 990.31 422.91 1005.57 429.37 1016.94 445.47
  A 0.34 0.34 0.0 0 0 1017.55 445.27
  L 1017.52 420.45
  A 0.72 0.72 0.0 0 0 1016.97 419.76
  Q 1007.23 417.41 991.52 415.02
  Q 955.70 409.55 925.28 426.77
  Q 897.99 442.21 888.99 470.96
  Q 881.21 495.82 889.44 520.39
  C 900.53 553.50 933.31 574.23 967.50 574.73
  Q 991.74 575.08 1015.41 566.13
  A 1.42 1.40 -6.8 0 0 1016.31 565.00
  L 1018.71 546.50
  Q 1018.84 545.53 1018.20 546.26
  Q 1013.65 551.44 1008.39 555.89
  C 990.06 571.40 961.54 570.41 941.29 560.82
  C 908.18 545.14 894.85 506.58 903.59 472.29"
/>
<path stroke="#d7aa91" vector-effect="non-scaling-stroke" d="
  M 642.15 486.53
  A 0.35 0.35 0.0 0 1 642.13 485.85
  C 655.52 483.04 666.58 474.13 668.49 459.75
  C 669.98 448.56 666.77 435.20 657.63 427.97
  C 647.33 419.83 633.38 417.85 620.59 417.21
  C 611.07 416.73 597.01 416.88 585.31 417.02
  Q 584.50 417.03 585.17 417.48
  Q 595.37 424.43 595.38 438.25
  Q 595.41 494.12 595.21 550.00
  Q 595.18 557.61 593.67 560.91
  C 591.51 565.64 588.65 567.40 585.09 570.65
  Q 584.55 571.14 585.27 571.15
  Q 604.05 571.45 622.81 571.08
  C 643.84 570.66 665.08 564.37 674.62 544.18
  C 687.43 517.05 670.18 490.98 642.15 486.53"
/>
<path stroke="#d7aa91" vector-effect="non-scaling-stroke" d="
  M 1438.45 471.98
  A 22.47 22.47 0.0 0 0 1415.98 449.51
  A 22.47 22.47 0.0 0 0 1393.51 471.98
  A 22.47 22.47 0.0 0 0 1415.98 494.45
  A 22.47 22.47 0.0 0 0 1438.45 471.98"
/>
<path stroke="#d7aa91" vector-effect="non-scaling-stroke" d="
  M 772.08 567.00
  C 791.50 577.45 816.39 577.21 835.49 566.12
  C 858.09 552.99 868.55 528.84 865.86 502.61
  C 862.90 473.75 841.59 451.85 812.24 450.33
  C 782.32 448.79 755.17 464.75 745.71 493.52
  C 736.58 521.29 746.08 553.00 772.08 567.00"
/>
<path stroke="#d7aa91" vector-effect="non-scaling-stroke" d="
  M 1068.04 519.77
  L 1108.52 519.76
  A 0.98 0.97 24.0 0 1 1109.42 520.36
  Q 1116.59 537.08 1123.78 553.80
  C 1126.80 560.82 1129.20 564.72 1124.18 570.53
  A 0.43 0.43 0.0 0 0 1124.50 571.24
  L 1147.99 571.23
  A 0.38 0.37 -27.1 0 0 1148.21 570.55
  C 1142.15 566.25 1139.52 561.70 1136.33 554.28
  Q 1114.06 502.50 1091.84 450.79
  A 0.32 0.31 45.5 0 0 1091.26 450.78
  Q 1068.23 502.90 1045.16 555.22
  Q 1040.72 565.30 1031.65 570.74
  A 0.27 0.27 0.0 0 0 1031.78 571.24
  L 1050.49 571.24
  Q 1051.22 571.24 1050.81 570.63
  C 1047.84 566.22 1049.74 561.38 1051.59 557.02
  Q 1059.39 538.56 1067.40 520.18
  Q 1067.58 519.77 1068.04 519.77"
/>
<path stroke="#d7aa91" vector-effect="non-scaling-stroke" d="
  M 717.54 567.58
  Q 715.17 562.85 715.14 557.50
  Q 714.85 516.33 714.88 475.17
  C 714.89 466.03 714.82 460.79 719.06 454.06
  A 0.36 0.36 0.0 0 0 718.76 453.51
  L 699.52 453.53
  A 0.37 0.37 0.0 0 0 699.21 454.11
  Q 703.64 460.91 703.62 469.25
  Q 703.53 511.87 703.45 554.50
  Q 703.44 563.85 699.38 570.70
  Q 699.05 571.25 699.69 571.25
  L 718.72 571.22
  Q 719.32 571.22 719.06 570.68
  Q 718.26 569.01 717.54 567.58"
/>
<path stroke="#d7aa91" vector-effect="non-scaling-stroke" d="
  M 1211.53 511.55
  C 1223.54 507.14 1234.11 501.77 1236.46 487.80
  C 1240.79 462.11 1213.21 453.58 1193.49 453.47
  Q 1179.84 453.39 1166.09 453.59
  Q 1165.60 453.60 1165.85 454.02
  Q 1169.85 460.94 1169.88 470.75
  Q 1169.98 512.88 1169.88 555.00
  Q 1169.86 564.17 1165.68 570.76
  Q 1165.38 571.23 1165.94 571.23
  L 1185.23 571.23
  Q 1185.89 571.23 1185.53 570.68
  Q 1181.37 564.25 1181.35 556.21
  Q 1181.26 524.12 1181.27 513.41
  Q 1181.27 512.92 1181.76 512.93
  L 1197.75 512.98
  A 1.14 1.11 70.1 0 1 1198.62 513.40
  C 1210.56 528.34 1223.58 546.12 1236.07 558.18
  C 1243.97 565.80 1251.23 571.83 1262.31 571.16
  C 1266.90 570.88 1270.89 570.14 1273.62 566.59
  A 1.59 1.58 14.2 0 0 1272.11 564.06
  C 1263.91 565.37 1258.04 562.69 1251.30 557.43
  Q 1242.83 550.84 1236.20 543.04
  Q 1224.81 529.65 1211.32 512.26
  Q 1210.94 511.76 1211.53 511.55"
/>
<path stroke="#d7aa91" vector-effect="non-scaling-stroke" d="
  M 1300.50 459.33
  Q 1315.11 458.92 1329.70 459.65
  C 1337.14 460.03 1340.24 462.75 1345.20 468.48
  Q 1345.78 469.15 1345.78 468.27
  L 1345.82 454.05
  Q 1345.82 453.52 1345.30 453.52
  L 1281.28 453.52
  Q 1280.74 453.52 1281.11 453.92
  Q 1288.34 461.55 1288.39 472.51
  Q 1288.60 519.60 1288.38 553.25
  Q 1288.31 563.41 1281.09 570.80
  Q 1280.66 571.23 1281.27 571.23
  L 1349.50 571.24
  A 0.95 0.95 0.0 0 0 1350.38 570.65
  L 1358.82 549.36
  A 0.20 0.19 -11.6 0 0 1358.50 549.15
  C 1353.93 553.70 1348.54 558.54 1342.96 561.21
  C 1332.77 566.08 1320.23 566.27 1309.25 564.54
  C 1301.47 563.32 1300.13 558.67 1300.03 551.24
  Q 1299.75 530.68 1300.00 510.10
  Q 1300.00 509.59 1300.52 509.58
  Q 1316.70 509.27 1332.91 509.73
  C 1337.73 509.86 1340.74 511.39 1344.04 514.54
  Q 1344.70 515.16 1344.70 514.25
  L 1344.69 499.00
  A 0.40 0.40 0.0 0 0 1343.99 498.73
  Q 1339.40 503.77 1333.51 503.78
  Q 1316.86 503.83 1300.48 503.81
  A 0.58 0.58 0.0 0 1 1299.90 503.23
  L 1299.91 459.94
  Q 1299.91 459.35 1300.50 459.33"
/>
<path stroke="#d7aa91" vector-effect="non-scaling-stroke" d="
  M 373.83 261.31
  C 374.93 262.27 377.06 263.18 378.39 263.92
  Q 378.43 263.95 378.49 263.94
  Q 378.63 263.93 378.76 263.93
  A 0.05 0.03 46.3 0 0 378.74 263.85
  L 373.99 261.10
  A 0.13 0.13 0.0 0 0 373.83 261.31"
/>
<path stroke="#d7aa91" vector-effect="non-scaling-stroke" d="
  M 478.16 557.28
  C 467.23 562.73 455.49 564.26 443.41 563.09
  A 0.18 0.17 67.0 0 0 443.29 563.40
  Q 443.46 563.53 443.75 563.59
  C 465.35 567.63 486.84 560.68 502.30 546.30
  C 533.86 516.95 532.30 469.69 520.77 431.47
  C 501.56 367.82 453.75 314.19 398.43 276.51
  Q 398.32 276.43 398.32 276.50
  Q 398.32 276.58 398.32 276.66
  Q 398.31 276.87 398.35 276.89
  C 453.90 317.59 497.52 374.42 514.24 441.98
  C 524.19 482.19 520.86 536.01 478.16 557.28"
/>
<path stroke="#80958e" vector-effect="non-scaling-stroke" d="
  M 745.10 318.80
  A 0.33 0.33 0.0 0 0 745.40 319.27
  L 780.91 319.51
  A 0.33 0.33 0.0 0 0 781.22 319.05
  L 763.73 279.65
  A 0.33 0.33 0.0 0 0 763.13 279.64
  L 745.10 318.80"
/>
<path stroke="#80958e" vector-effect="non-scaling-stroke" d="
  M 956.30 318.98
  A 0.31 0.31 0.0 0 0 956.59 319.42
  L 992.19 319.38
  A 0.31 0.31 0.0 0 0 992.47 318.95
  L 975.13 279.62
  A 0.31 0.31 0.0 0 0 974.56 279.61
  L 956.30 318.98"
/>
<path stroke="#80958e" vector-effect="non-scaling-stroke" d="
  M 1210.23 318.79
  A 0.34 0.34 0.0 0 0 1210.53 319.27
  L 1246.02 319.52
  A 0.34 0.34 0.0 0 0 1246.33 319.04
  L 1228.86 279.66
  A 0.34 0.34 0.0 0 0 1228.24 279.66
  L 1210.23 318.79"
/>
<path stroke="#80958e" vector-effect="non-scaling-stroke" d="
  M 1342.99 311.97
  C 1358.24 309.34 1367.26 297.21 1362.94 281.78
  C 1358.45 265.76 1334.78 264.50 1321.56 264.66
  Q 1320.99 264.67 1320.99 265.24
  L 1321.00 311.95
  Q 1321.00 312.32 1321.37 312.33
  Q 1336.75 313.05 1342.99 311.97"
/>
<path stroke="#d7aa91" vector-effect="non-scaling-stroke" d="
  M 638.05 427.42
  Q 625.17 422.89 609.40 424.13
  Q 609.05 424.15 609.05 424.50
  L 609.10 483.01
  A 0.44 0.43 -89.3 0 0 609.52 483.45
  C 623.02 483.90 640.72 483.62 649.70 471.34
  C 658.12 459.83 656.94 439.18 644.64 430.93
  Q 640.93 428.43 638.05 427.42"
/>
<path stroke="#d7aa91" vector-effect="non-scaling-stroke" d="
  M 661.96 513.66
  C 652.99 492.80 630.04 488.88 609.62 490.88
  Q 609.12 490.93 609.12 491.43
  Q 609.05 519.96 608.95 548.50
  Q 608.93 555.24 610.80 558.66
  C 615.46 567.18 633.29 564.35 640.62 561.80
  C 661.26 554.63 670.63 533.81 661.96 513.66"
/>
<path stroke="#d7aa91" vector-effect="non-scaling-stroke" d="
  M 1435.26 472.00
  A 19.28 19.28 0.0 0 0 1415.98 452.72
  A 19.28 19.28 0.0 0 0 1396.70 472.00
  A 19.28 19.28 0.0 0 0 1415.98 491.28
  A 19.28 19.28 0.0 0 0 1435.26 472.00"
/>
<path stroke="#d7aa91" vector-effect="non-scaling-stroke" d="
  M 855.97 520.25
  C 856.98 485.93 831.95 454.61 795.50 458.62
  Q 773.33 461.05 760.97 479.44
  C 744.19 504.39 754.22 541.32 778.12 557.67
  C 809.35 579.04 854.79 560.61 855.97 520.25"
/>
<path stroke="#d7aa91" vector-effect="non-scaling-stroke" d="
  M 1070.50 513.58
  A 0.34 0.34 0.0 0 0 1070.81 514.06
  L 1106.36 514.10
  A 0.34 0.34 0.0 0 0 1106.67 513.62
  L 1089.35 474.32
  A 0.34 0.34 0.0 0 0 1088.73 474.31
  L 1070.50 513.58"
/>
<path stroke="#d7aa91" vector-effect="non-scaling-stroke" d="
  M 1413.55 462.83
  Q 1420.78 460.32 1423.23 467.42
  Q 1423.40 467.93 1423.94 467.90
  L 1426.20 467.79
  Q 1426.86 467.76 1426.78 467.10
  C 1426.24 462.81 1423.55 460.08 1419.24 459.20
  C 1401.86 455.67 1398.68 481.30 1414.37 484.65
  Q 1422.89 486.47 1427.17 477.24
  A 0.66 0.66 0.0 0 0 1426.59 476.30
  L 1424.34 476.24
  Q 1423.70 476.22 1423.40 476.78
  Q 1419.91 483.25 1413.94 480.82
  C 1407.28 478.11 1406.89 465.13 1413.55 462.83"
/>
<path stroke="#d7aa91" vector-effect="non-scaling-stroke" d="
  M 1224.24 485.11
  C 1226.00 461.31 1198.83 459.47 1182.01 459.28
  A 0.72 0.72 0.0 0 0 1181.28 460.00
  L 1181.27 506.72
  Q 1181.27 507.08 1181.62 507.09
  C 1199.37 507.80 1222.51 508.39 1224.24 485.11"
/>
</g>
<path fill="#ffffff" d="
  M 0.00 0.00
  L 1530.00 0.00
  L 1530.00 638.00
  L 0.00 638.00
  L 0.00 0.00
  Z
  M 299.61 92.83
  Q 306.81 117.61 316.81 141.25
  Q 327.30 166.02 339.72 190.11
  Q 340.35 191.34 340.25 189.96
  Q 338.04 159.62 335.36 128.79
  Q 334.26 116.20 332.80 109.84
  C 329.88 97.19 324.23 84.68 317.39 73.97
  C 310.70 63.49 293.31 41.93 278.43 46.61
  C 240.52 58.55 328.38 195.15 341.42 215.16
  A 0.29 0.29 0.0 0 0 341.95 215.02
  C 342.19 211.28 341.70 208.35 340.05 204.73
  Q 323.38 168.06 310.20 130.00
  Q 303.86 111.71 299.42 92.88
  A 0.10 0.10 0.0 0 1 299.61 92.83
  Z
  M 139.11 123.49
  Q 141.52 124.08 142.28 124.39
  C 204.35 149.99 263.10 184.51 318.55 222.17
  C 322.16 224.62 325.10 225.98 329.05 226.96
  A 0.35 0.35 0.0 0 0 329.38 226.38
  C 302.96 199.61 274.66 174.85 244.72 152.29
  Q 212.83 128.25 177.14 110.19
  Q 170.16 106.66 152.48 100.02
  Q 118.37 87.21 84.16 93.17
  C 46.66 99.70 79.72 125.11 91.38 132.67
  C 122.29 152.70 155.00 167.93 189.93 179.50
  Q 242.96 197.06 294.55 215.02
  Q 297.26 215.96 294.94 214.28
  C 246.28 179.00 193.41 145.95 139.09 123.57
  A 0.04 0.04 0.0 0 1 139.11 123.49
  Z
  M 417.92 146.97
  C 401.60 165.34 388.93 186.56 378.27 208.69
  A 0.25 0.25 0.0 0 0 378.64 209.01
  Q 391.74 200.45 404.78 191.67
  Q 418.30 182.56 421.10 180.13
  Q 436.44 166.84 439.50 146.03
  C 440.51 139.16 438.51 129.67 432.44 125.55
  C 417.92 115.71 402.76 137.86 395.91 147.74
  Q 390.30 155.82 386.81 162.29
  Q 371.56 190.55 359.94 220.52
  A 0.33 0.33 0.0 0 0 360.41 220.92
  C 363.92 218.92 366.94 217.21 369.10 213.52
  C 382.50 190.57 398.70 165.95 417.74 146.80
  A 0.12 0.12 0.0 0 1 417.92 146.97
  Z
  M 609.78 284.03
  Q 609.62 261.80 610.02 239.46
  C 610.17 231.46 612.84 228.46 616.54 222.77
  Q 616.88 222.25 616.26 222.25
  L 589.47 222.25
  A 0.43 0.43 0.0 0 0 589.15 222.97
  Q 596.22 230.72 596.19 241.50
  Q 596.02 295.78 596.01 350.07
  C 596.01 361.56 596.08 367.84 589.19 375.66
  A 0.44 0.44 0.0 0 0 589.52 376.40
  L 616.49 376.42
  A 0.36 0.36 0.0 0 0 616.76 375.81
  C 609.41 367.72 609.78 360.90 609.77 348.67
  Q 609.76 322.24 609.74 295.77
  Q 609.74 293.14 610.91 291.51
  Q 612.27 289.62 614.27 288.17
  Q 614.71 287.85 615.03 288.30
  Q 638.66 321.47 662.48 354.51
  C 668.03 362.19 676.64 372.85 685.74 375.32
  Q 693.44 377.41 701.38 375.55
  C 705.56 374.57 707.89 372.77 710.59 369.60
  Q 712.84 366.95 709.57 368.13
  C 705.35 369.64 696.38 370.39 692.22 367.27
  C 685.35 362.12 681.40 356.41 674.35 347.19
  Q 648.82 313.79 623.38 280.08
  Q 623.05 279.64 623.43 279.24
  Q 643.95 257.86 664.77 236.76
  Q 674.61 226.79 687.81 222.68
  A 0.25 0.25 0.0 0 0 687.74 222.19
  L 660.47 222.28
  Q 659.76 222.28 660.13 222.89
  Q 663.29 228.00 659.26 232.27
  Q 634.80 258.21 610.18 284.19
  A 0.23 0.23 0.0 0 1 609.78 284.03
  Z
  M 402.58 534.46
  C 414.93 558.11 439.30 574.56 466.40 573.89
  C 507.12 572.88 535.19 540.93 540.58 501.72
  C 543.09 483.39 541.17 464.18 536.63 445.78
  C 524.27 395.70 495.24 349.31 458.48 313.26
  C 426.14 281.55 387.72 254.42 346.19 236.05
  A 0.14 0.13 80.3 0 0 346.04 236.27
  C 370.46 263.47 390.86 297.47 404.55 329.08
  C 419.90 364.52 407.45 395.23 397.30 430.36
  C 393.71 442.79 391.07 454.78 389.75 466.49
  Q 385.71 502.13 402.58 534.46
  Z
  M 163.48 283.36
  Q 189.93 274.27 220.39 268.67
  Q 272.18 259.15 321.22 256.34
  C 324.92 256.13 328.37 253.43 331.31 251.46
  A 0.40 0.40 0.0 0 0 331.15 250.73
  C 294.37 245.97 117.37 226.95 115.00 289.25
  C 114.10 313.01 141.49 324.23 160.66 326.62
  Q 190.27 330.29 217.23 319.48
  Q 224.09 316.73 234.94 310.24
  Q 272.56 287.72 309.07 265.21
  Q 311.06 263.99 308.72 264.02
  Q 257.18 264.61 208.00 272.54
  Q 187.10 275.91 163.55 283.57
  A 0.11 0.11 0.0 0 1 163.48 283.36
  Z
  M 742.71 325.12
  L 783.21 325.16
  Q 783.74 325.16 783.94 325.64
  Q 791.72 343.60 799.43 361.60
  C 801.83 367.20 803.01 371.13 798.63 375.60
  A 0.47 0.46 22.0 0 0 798.97 376.39
  L 822.28 376.42
  A 0.50 0.49 62.6 0 0 822.56 375.52
  Q 815.68 370.67 812.33 362.91
  Q 789.32 309.54 766.46 256.26
  A 0.43 0.43 0.0 0 0 765.67 256.26
  Q 743.04 307.66 720.26 358.90
  C 716.71 366.88 713.17 371.62 706.11 375.86
  A 0.30 0.30 0.0 0 0 706.27 376.42
  L 724.77 376.42
  Q 725.37 376.42 725.11 375.87
  Q 722.67 370.73 725.34 364.26
  Q 733.34 344.86 741.86 325.67
  Q 742.11 325.12 742.71 325.12
  Z
  M 953.95 325.12
  L 994.72 325.14
  A 0.48 0.47 77.2 0 1 995.15 325.42
  Q 1002.97 343.58 1010.85 361.92
  C 1013.24 367.47 1014.06 371.15 1009.91 375.65
  A 0.45 0.45 0.0 0 0 1010.24 376.40
  L 1033.74 376.43
  A 0.45 0.45 0.0 0 0 1033.99 375.61
  Q 1027.39 371.13 1024.00 363.34
  Q 1000.66 309.67 977.89 256.66
  Q 977.34 255.38 976.78 256.66
  Q 954.10 308.11 932.36 357.12
  C 928.39 366.05 925.21 371.36 917.36 375.86
  A 0.28 0.28 0.0 0 0 917.50 376.39
  L 936.49 376.42
  Q 937.14 376.42 936.78 375.88
  C 933.84 371.40 935.09 368.13 937.19 363.06
  Q 944.96 344.29 953.09 325.68
  Q 953.33 325.12 953.95 325.12
  Z
  M 1207.75 325.12
  L 1248.46 325.14
  A 0.61 0.61 0.0 0 1 1249.02 325.51
  Q 1257.17 344.44 1265.41 363.57
  Q 1268.39 370.50 1263.75 375.81
  Q 1263.23 376.40 1264.02 376.40
  L 1287.51 376.43
  A 0.45 0.45 0.0 0 0 1287.77 375.61
  Q 1281.22 370.99 1278.01 363.61
  Q 1254.59 309.88 1231.50 256.16
  A 0.35 0.34 45.7 0 0 1230.87 256.15
  Q 1207.67 308.69 1184.33 361.17
  Q 1180.17 370.52 1171.36 375.83
  A 0.29 0.29 0.0 0 0 1171.51 376.37
  L 1190.26 376.44
  Q 1190.89 376.44 1190.57 375.89
  C 1189.52 374.05 1188.58 372.66 1188.89 370.42
  Q 1189.39 366.69 1190.63 363.69
  Q 1196.57 349.34 1207.00 325.62
  Q 1207.21 325.12 1207.75 325.12
  Z
  M 844.35 352.75
  C 844.33 361.45 843.80 370.28 836.78 375.79
  A 0.34 0.34 0.0 0 0 836.99 376.40
  L 905.25 376.43
  Q 905.88 376.43 906.10 375.84
  L 915.93 350.21
  Q 916.66 348.31 915.44 349.94
  C 907.75 360.21 902.12 368.28 888.18 369.91
  C 881.36 370.71 866.13 371.81 860.48 368.09
  C 855.76 364.98 855.90 359.49 855.89 354.50
  Q 855.81 314.37 855.75 274.25
  Q 855.74 265.95 860.23 259.26
  A 0.31 0.31 0.0 0 0 859.97 258.77
  L 840.49 258.76
  A 0.49 0.49 0.0 0 0 840.09 259.53
  C 843.75 264.94 844.29 269.89 844.31 277.06
  Q 844.43 314.91 844.35 352.75
  Z
  M 1137.74 312.75
  L 1067.26 312.74
  A 0.52 0.52 0.0 0 1 1066.74 312.22
  Q 1066.69 292.77 1066.77 273.24
  Q 1066.80 265.64 1071.00 259.33
  Q 1071.37 258.77 1070.71 258.77
  L 1051.26 258.77
  Q 1050.51 258.77 1050.93 259.40
  Q 1055.15 265.79 1055.20 272.82
  Q 1055.36 293.77 1055.21 360.50
  Q 1055.19 369.26 1051.02 375.89
  Q 1050.70 376.39 1051.30 376.40
  L 1070.52 376.40
  Q 1071.23 376.40 1070.85 375.81
  Q 1066.83 369.58 1066.77 360.74
  Q 1066.61 339.95 1066.77 318.99
  Q 1066.77 318.50 1067.26 318.50
  L 1137.98 318.49
  A 0.46 0.45 -0.0 0 1 1138.44 318.94
  Q 1138.55 340.46 1138.37 362.00
  Q 1138.31 369.74 1134.08 375.92
  A 0.32 0.32 0.0 0 0 1134.34 376.42
  L 1153.99 376.41
  A 0.29 0.29 0.0 0 0 1154.23 375.95
  Q 1149.97 369.72 1149.95 362.00
  Q 1149.83 317.62 1149.94 273.25
  Q 1149.96 265.53 1154.11 259.47
  Q 1154.57 258.79 1153.75 258.79
  L 1134.49 258.80
  A 0.42 0.41 -17.1 0 0 1134.14 259.45
  Q 1138.41 265.63 1138.47 273.50
  Q 1138.62 292.81 1138.38 312.12
  Q 1138.38 312.75 1137.74 312.75
  Z
  M 1321.51 318.26
  L 1337.01 318.26
  A 1.93 1.93 0.0 0 1 1338.53 319.00
  C 1351.69 335.60 1365.15 353.64 1380.46 367.52
  C 1388.40 374.72 1395.81 377.74 1406.12 375.93
  C 1408.61 375.49 1413.97 373.41 1413.46 369.97
  A 0.74 0.73 85.2 0 0 1412.71 369.33
  Q 1410.83 369.39 1406.50 369.51
  C 1400.07 369.70 1391.64 363.77 1386.88 359.39
  C 1373.41 347.00 1362.42 331.71 1350.77 317.62
  A 0.43 0.43 0.0 0 1 1350.97 316.93
  C 1359.44 314.19 1368.17 309.91 1372.97 302.03
  C 1378.87 292.38 1377.34 279.18 1369.69 271.10
  C 1361.46 262.41 1347.20 259.10 1334.99 258.91
  Q 1317.41 258.63 1305.60 258.84
  Q 1304.97 258.85 1305.31 259.38
  Q 1309.46 265.90 1309.48 274.25
  Q 1309.57 318.50 1309.25 362.75
  Q 1309.20 370.06 1305.22 375.87
  A 0.35 0.35 0.0 0 0 1305.51 376.42
  L 1325.12 376.41
  A 0.31 0.31 0.0 0 0 1325.37 375.92
  Q 1321.26 370.18 1321.16 362.88
  Q 1320.87 340.81 1321.03 318.74
  Q 1321.03 318.26 1321.51 318.26
  Z
  M 1426.95 359.75
  C 1426.94 366.16 1425.99 370.42 1422.64 375.80
  Q 1422.26 376.41 1422.98 376.41
  L 1442.46 376.42
  Q 1443.00 376.42 1442.71 375.97
  C 1438.05 368.68 1438.45 363.34 1438.44 353.05
  Q 1438.41 312.65 1438.70 272.25
  Q 1438.75 265.03 1442.73 259.30
  A 0.32 0.32 0.0 0 0 1442.47 258.80
  L 1423.02 258.79
  Q 1422.35 258.79 1422.71 259.35
  Q 1426.91 265.88 1426.93 273.75
  Q 1427.03 316.75 1426.95 359.75
  Z
  M 304.49 370.90
  Q 304.47 370.73 304.55 370.48
  Q 308.70 357.26 314.40 344.61
  Q 329.67 310.73 349.46 279.29
  C 351.11 276.67 351.38 274.30 351.35 271.38
  Q 351.34 270.79 350.84 271.10
  Q 327.70 285.65 308.48 303.22
  C 286.97 322.88 259.70 354.50 276.84 385.26
  C 287.70 404.76 310.54 411.46 327.85 394.60
  C 337.12 385.58 341.14 373.54 342.52 360.48
  Q 347.30 315.32 349.17 295.68
  Q 349.27 294.65 348.64 295.46
  C 331.13 318.10 314.58 343.89 304.79 370.86
  Q 304.56 371.49 304.49 370.90
  Z
  M 903.59 472.29
  C 911.88 439.78 938.24 422.60 970.76 422.79
  C 990.31 422.91 1005.57 429.37 1016.94 445.47
  A 0.34 0.34 0.0 0 0 1017.55 445.27
  L 1017.52 420.45
  A 0.72 0.72 0.0 0 0 1016.97 419.76
  Q 1007.23 417.41 991.52 415.02
  Q 955.70 409.55 925.28 426.77
  Q 897.99 442.21 888.99 470.96
  Q 881.21 495.82 889.44 520.39
  C 900.53 553.50 933.31 574.23 967.50 574.73
  Q 991.74 575.08 1015.41 566.13
  A 1.42 1.40 -6.8 0 0 1016.31 565.00
  L 1018.71 546.50
  Q 1018.84 545.53 1018.20 546.26
  Q 1013.65 551.44 1008.39 555.89
  C 990.06 571.40 961.54 570.41 941.29 560.82
  C 908.18 545.14 894.85 506.58 903.59 472.29
  Z
  M 642.15 486.53
  A 0.35 0.35 0.0 0 1 642.13 485.85
  C 655.52 483.04 666.58 474.13 668.49 459.75
  C 669.98 448.56 666.77 435.20 657.63 427.97
  C 647.33 419.83 633.38 417.85 620.59 417.21
  C 611.07 416.73 597.01 416.88 585.31 417.02
  Q 584.50 417.03 585.17 417.48
  Q 595.37 424.43 595.38 438.25
  Q 595.41 494.12 595.21 550.00
  Q 595.18 557.61 593.67 560.91
  C 591.51 565.64 588.65 567.40 585.09 570.65
  Q 584.55 571.14 585.27 571.15
  Q 604.05 571.45 622.81 571.08
  C 643.84 570.66 665.08 564.37 674.62 544.18
  C 687.43 517.05 670.18 490.98 642.15 486.53
  Z
  M 1438.45 471.98
  A 22.47 22.47 0.0 0 0 1415.98 449.51
  A 22.47 22.47 0.0 0 0 1393.51 471.98
  A 22.47 22.47 0.0 0 0 1415.98 494.45
  A 22.47 22.47 0.0 0 0 1438.45 471.98
  Z
  M 772.08 567.00
  C 791.50 577.45 816.39 577.21 835.49 566.12
  C 858.09 552.99 868.55 528.84 865.86 502.61
  C 862.90 473.75 841.59 451.85 812.24 450.33
  C 782.32 448.79 755.17 464.75 745.71 493.52
  C 736.58 521.29 746.08 553.00 772.08 567.00
  Z
  M 1068.04 519.77
  L 1108.52 519.76
  A 0.98 0.97 24.0 0 1 1109.42 520.36
  Q 1116.59 537.08 1123.78 553.80
  C 1126.80 560.82 1129.20 564.72 1124.18 570.53
  A 0.43 0.43 0.0 0 0 1124.50 571.24
  L 1147.99 571.23
  A 0.38 0.37 -27.1 0 0 1148.21 570.55
  C 1142.15 566.25 1139.52 561.70 1136.33 554.28
  Q 1114.06 502.50 1091.84 450.79
  A 0.32 0.31 45.5 0 0 1091.26 450.78
  Q 1068.23 502.90 1045.16 555.22
  Q 1040.72 565.30 1031.65 570.74
  A 0.27 0.27 0.0 0 0 1031.78 571.24
  L 1050.49 571.24
  Q 1051.22 571.24 1050.81 570.63
  C 1047.84 566.22 1049.74 561.38 1051.59 557.02
  Q 1059.39 538.56 1067.40 520.18
  Q 1067.58 519.77 1068.04 519.77
  Z
  M 717.54 567.58
  Q 715.17 562.85 715.14 557.50
  Q 714.85 516.33 714.88 475.17
  C 714.89 466.03 714.82 460.79 719.06 454.06
  A 0.36 0.36 0.0 0 0 718.76 453.51
  L 699.52 453.53
  A 0.37 0.37 0.0 0 0 699.21 454.11
  Q 703.64 460.91 703.62 469.25
  Q 703.53 511.87 703.45 554.50
  Q 703.44 563.85 699.38 570.70
  Q 699.05 571.25 699.69 571.25
  L 718.72 571.22
  Q 719.32 571.22 719.06 570.68
  Q 718.26 569.01 717.54 567.58
  Z
  M 1211.53 511.55
  C 1223.54 507.14 1234.11 501.77 1236.46 487.80
  C 1240.79 462.11 1213.21 453.58 1193.49 453.47
  Q 1179.84 453.39 1166.09 453.59
  Q 1165.60 453.60 1165.85 454.02
  Q 1169.85 460.94 1169.88 470.75
  Q 1169.98 512.88 1169.88 555.00
  Q 1169.86 564.17 1165.68 570.76
  Q 1165.38 571.23 1165.94 571.23
  L 1185.23 571.23
  Q 1185.89 571.23 1185.53 570.68
  Q 1181.37 564.25 1181.35 556.21
  Q 1181.26 524.12 1181.27 513.41
  Q 1181.27 512.92 1181.76 512.93
  L 1197.75 512.98
  A 1.14 1.11 70.1 0 1 1198.62 513.40
  C 1210.56 528.34 1223.58 546.12 1236.07 558.18
  C 1243.97 565.80 1251.23 571.83 1262.31 571.16
  C 1266.90 570.88 1270.89 570.14 1273.62 566.59
  A 1.59 1.58 14.2 0 0 1272.11 564.06
  C 1263.91 565.37 1258.04 562.69 1251.30 557.43
  Q 1242.83 550.84 1236.20 543.04
  Q 1224.81 529.65 1211.32 512.26
  Q 1210.94 511.76 1211.53 511.55
  Z
  M 1300.50 459.33
  Q 1315.11 458.92 1329.70 459.65
  C 1337.14 460.03 1340.24 462.75 1345.20 468.48
  Q 1345.78 469.15 1345.78 468.27
  L 1345.82 454.05
  Q 1345.82 453.52 1345.30 453.52
  L 1281.28 453.52
  Q 1280.74 453.52 1281.11 453.92
  Q 1288.34 461.55 1288.39 472.51
  Q 1288.60 519.60 1288.38 553.25
  Q 1288.31 563.41 1281.09 570.80
  Q 1280.66 571.23 1281.27 571.23
  L 1349.50 571.24
  A 0.95 0.95 0.0 0 0 1350.38 570.65
  L 1358.82 549.36
  A 0.20 0.19 -11.6 0 0 1358.50 549.15
  C 1353.93 553.70 1348.54 558.54 1342.96 561.21
  C 1332.77 566.08 1320.23 566.27 1309.25 564.54
  C 1301.47 563.32 1300.13 558.67 1300.03 551.24
  Q 1299.75 530.68 1300.00 510.10
  Q 1300.00 509.59 1300.52 509.58
  Q 1316.70 509.27 1332.91 509.73
  C 1337.73 509.86 1340.74 511.39 1344.04 514.54
  Q 1344.70 515.16 1344.70 514.25
  L 1344.69 499.00
  A 0.40 0.40 0.0 0 0 1343.99 498.73
  Q 1339.40 503.77 1333.51 503.78
  Q 1316.86 503.83 1300.48 503.81
  A 0.58 0.58 0.0 0 1 1299.90 503.23
  L 1299.91 459.94
  Q 1299.91 459.35 1300.50 459.33
  Z"
/>
<path fill="#59a63f" d="
  M 299.42 92.88
  Q 303.86 111.71 310.20 130.00
  Q 323.38 168.06 340.05 204.73
  C 341.70 208.35 342.19 211.28 341.95 215.02
  A 0.29 0.29 0.0 0 1 341.42 215.16
  C 328.38 195.15 240.52 58.55 278.43 46.61
  C 293.31 41.93 310.70 63.49 317.39 73.97
  C 324.23 84.68 329.88 97.19 332.80 109.84
  Q 334.26 116.20 335.36 128.79
  Q 338.04 159.62 340.25 189.96
  Q 340.35 191.34 339.72 190.11
  Q 327.30 166.02 316.81 141.25
  Q 306.81 117.61 299.61 92.83
  A 0.10 0.10 0.0 0 0 299.42 92.88
  Z"
/>
<path fill="#002b1d" d="
  M 139.09 123.57
  C 193.41 145.95 246.28 179.00 294.94 214.28
  Q 297.26 215.96 294.55 215.02
  Q 242.96 197.06 189.93 179.50
  C 155.00 167.93 122.29 152.70 91.38 132.67
  C 79.72 125.11 46.66 99.70 84.16 93.17
  Q 118.37 87.21 152.48 100.02
  Q 170.16 106.66 177.14 110.19
  Q 212.83 128.25 244.72 152.29
  C 274.66 174.85 302.96 199.61 329.38 226.38
  A 0.35 0.35 0.0 0 1 329.05 226.96
  C 325.10 225.98 322.16 224.62 318.55 222.17
  C 263.10 184.51 204.35 149.99 142.28 124.39
  Q 141.52 124.08 139.11 123.49
  A 0.04 0.04 0.0 0 0 139.09 123.57
  Z"
/>
<path fill="#3f250c" d="
  M 417.74 146.80
  C 398.70 165.95 382.50 190.57 369.10 213.52
  C 366.94 217.21 363.92 218.92 360.41 220.92
  A 0.33 0.33 0.0 0 1 359.94 220.52
  Q 371.56 190.55 386.81 162.29
  Q 390.30 155.82 395.91 147.74
  C 402.76 137.86 417.92 115.71 432.44 125.55
  C 438.51 129.67 440.51 139.16 439.50 146.03
  Q 436.44 166.84 421.10 180.13
  Q 418.30 182.56 404.78 191.67
  Q 391.74 200.45 378.64 209.01
  A 0.25 0.25 0.0 0 1 378.27 208.69
  C 388.93 186.56 401.60 165.34 417.92 146.97
  A 0.12 0.12 0.0 0 0 417.74 146.80
  Z"
/>
<path fill="#002b1d" d="
  M 609.78 284.03
  A 0.23 0.23 0.0 0 0 610.18 284.19
  Q 634.80 258.21 659.26 232.27
  Q 663.29 228.00 660.13 222.89
  Q 659.76 222.28 660.47 222.28
  L 687.74 222.19
  A 0.25 0.25 0.0 0 1 687.81 222.68
  Q 674.61 226.79 664.77 236.76
  Q 643.95 257.86 623.43 279.24
  Q 623.05 279.64 623.38 280.08
  Q 648.82 313.79 674.35 347.19
  C 681.40 356.41 685.35 362.12 692.22 367.27
  C 696.38 370.39 705.35 369.64 709.57 368.13
  Q 712.84 366.95 710.59 369.60
  C 707.89 372.77 705.56 374.57 701.38 375.55
  Q 693.44 377.41 685.74 375.32
  C 676.64 372.85 668.03 362.19 662.48 354.51
  Q 638.66 321.47 615.03 288.30
  Q 614.71 287.85 614.27 288.17
  Q 612.27 289.62 610.91 291.51
  Q 609.74 293.14 609.74 295.77
  Q 609.76 322.24 609.77 348.67
  C 609.78 360.90 609.41 367.72 616.76 375.81
  A 0.36 0.36 0.0 0 1 616.49 376.42
  L 589.52 376.40
  A 0.44 0.44 0.0 0 1 589.19 375.66
  C 596.08 367.84 596.01 361.56 596.01 350.07
  Q 596.02 295.78 596.19 241.50
  Q 596.22 230.72 589.15 222.97
  A 0.43 0.43 0.0 0 1 589.47 222.25
  L 616.26 222.25
  Q 616.88 222.25 616.54 222.77
  C 612.84 228.46 610.17 231.46 610.02 239.46
  Q 609.62 261.80 609.78 284.03
  Z"
/>
<path fill="#ae5522" d="
  M 466.40 573.89
  C 439.30 574.56 414.93 558.11 402.58 534.46
  Q 385.71 502.13 389.75 466.49
  C 391.07 454.78 393.71 442.79 397.30 430.36
  C 407.45 395.23 419.90 364.52 404.55 329.08
  C 390.86 297.47 370.46 263.47 346.04 236.27
  A 0.14 0.13 80.3 0 1 346.19 236.05
  C 387.72 254.42 426.14 281.55 458.48 313.26
  C 495.24 349.31 524.27 395.70 536.63 445.78
  C 541.17 464.18 543.09 483.39 540.58 501.72
  C 535.19 540.93 507.12 572.88 466.40 573.89
  Z
  M 373.83 261.31
  C 374.93 262.27 377.06 263.18 378.39 263.92
  Q 378.43 263.95 378.49 263.94
  Q 378.63 263.93 378.76 263.93
  A 0.05 0.03 46.3 0 0 378.74 263.85
  L 373.99 261.10
  A 0.13 0.13 0.0 0 0 373.83 261.31
  Z
  M 478.16 557.28
  C 467.23 562.73 455.49 564.26 443.41 563.09
  A 0.18 0.17 67.0 0 0 443.29 563.40
  Q 443.46 563.53 443.75 563.59
  C 465.35 567.63 486.84 560.68 502.30 546.30
  C 533.86 516.95 532.30 469.69 520.77 431.47
  C 501.56 367.82 453.75 314.19 398.43 276.51
  Q 398.32 276.43 398.32 276.50
  Q 398.32 276.58 398.32 276.66
  Q 398.31 276.87 398.35 276.89
  C 453.90 317.59 497.52 374.42 514.24 441.98
  C 524.19 482.19 520.86 536.01 478.16 557.28
  Z"
/>
<path fill="#006539" d="
  M 163.55 283.57
  Q 187.10 275.91 208.00 272.54
  Q 257.18 264.61 308.72 264.02
  Q 311.06 263.99 309.07 265.21
  Q 272.56 287.72 234.94 310.24
  Q 224.09 316.73 217.23 319.48
  Q 190.27 330.29 160.66 326.62
  C 141.49 324.23 114.10 313.01 115.00 289.25
  C 117.37 226.95 294.37 245.97 331.15 250.73
  A 0.40 0.40 0.0 0 1 331.31 251.46
  C 328.37 253.43 324.92 256.13 321.22 256.34
  Q 272.18 259.15 220.39 268.67
  Q 189.93 274.27 163.48 283.36
  A 0.11 0.11 0.0 0 0 163.55 283.57
  Z"
/>
<path fill="#002b1d" d="
  M 741.86 325.67
  Q 733.34 344.86 725.34 364.26
  Q 722.67 370.73 725.11 375.87
  Q 725.37 376.42 724.77 376.42
  L 706.27 376.42
  A 0.30 0.30 0.0 0 1 706.11 375.86
  C 713.17 371.62 716.71 366.88 720.26 358.90
  Q 743.04 307.66 765.67 256.26
  A 0.43 0.43 0.0 0 1 766.46 256.26
  Q 789.32 309.54 812.33 362.91
  Q 815.68 370.67 822.56 375.52
  A 0.50 0.49 62.6 0 1 822.28 376.42
  L 798.97 376.39
  A 0.47 0.46 22.0 0 1 798.63 375.60
  C 803.01 371.13 801.83 367.20 799.43 361.60
  Q 791.72 343.60 783.94 325.64
  Q 783.74 325.16 783.21 325.16
  L 742.71 325.12
  Q 742.11 325.12 741.86 325.67
  Z
  M 745.10 318.80
  A 0.33 0.33 0.0 0 0 745.40 319.27
  L 780.91 319.51
  A 0.33 0.33 0.0 0 0 781.22 319.05
  L 763.73 279.65
  A 0.33 0.33 0.0 0 0 763.13 279.64
  L 745.10 318.80
  Z"
/>
<path fill="#002b1d" d="
  M 953.09 325.68
  Q 944.96 344.29 937.19 363.06
  C 935.09 368.13 933.84 371.40 936.78 375.88
  Q 937.14 376.42 936.49 376.42
  L 917.50 376.39
  A 0.28 0.28 0.0 0 1 917.36 375.86
  C 925.21 371.36 928.39 366.05 932.36 357.12
  Q 954.10 308.11 976.78 256.66
  Q 977.34 255.38 977.89 256.66
  Q 1000.66 309.67 1024.00 363.34
  Q 1027.39 371.13 1033.99 375.61
  A 0.45 0.45 0.0 0 1 1033.74 376.43
  L 1010.24 376.40
  A 0.45 0.45 0.0 0 1 1009.91 375.65
  C 1014.06 371.15 1013.24 367.47 1010.85 361.92
  Q 1002.97 343.58 995.15 325.42
  A 0.48 0.47 77.2 0 0 994.72 325.14
  L 953.95 325.12
  Q 953.33 325.12 953.09 325.68
  Z
  M 956.30 318.98
  A 0.31 0.31 0.0 0 0 956.59 319.42
  L 992.19 319.38
  A 0.31 0.31 0.0 0 0 992.47 318.95
  L 975.13 279.62
  A 0.31 0.31 0.0 0 0 974.56 279.61
  L 956.30 318.98
  Z"
/>
<path fill="#002b1d" d="
  M 1207.00 325.62
  Q 1196.57 349.34 1190.63 363.69
  Q 1189.39 366.69 1188.89 370.42
  C 1188.58 372.66 1189.52 374.05 1190.57 375.89
  Q 1190.89 376.44 1190.26 376.44
  L 1171.51 376.37
  A 0.29 0.29 0.0 0 1 1171.36 375.83
  Q 1180.17 370.52 1184.33 361.17
  Q 1207.67 308.69 1230.87 256.15
  A 0.35 0.34 45.7 0 1 1231.50 256.16
  Q 1254.59 309.88 1278.01 363.61
  Q 1281.22 370.99 1287.77 375.61
  A 0.45 0.45 0.0 0 1 1287.51 376.43
  L 1264.02 376.40
  Q 1263.23 376.40 1263.75 375.81
  Q 1268.39 370.50 1265.41 363.57
  Q 1257.17 344.44 1249.02 325.51
  A 0.61 0.61 0.0 0 0 1248.46 325.14
  L 1207.75 325.12
  Q 1207.21 325.12 1207.00 325.62
  Z
  M 1210.23 318.79
  A 0.34 0.34 0.0 0 0 1210.53 319.27
  L 1246.02 319.52
  A 0.34 0.34 0.0 0 0 1246.33 319.04
  L 1228.86 279.66
  A 0.34 0.34 0.0 0 0 1228.24 279.66
  L 1210.23 318.79
  Z"
/>
<path fill="#002b1d" d="
  M 836.78 375.79
  C 843.80 370.28 844.33 361.45 844.35 352.75
  Q 844.43 314.91 844.31 277.06
  C 844.29 269.89 843.75 264.94 840.09 259.53
  A 0.49 0.49 0.0 0 1 840.49 258.76
  L 859.97 258.77
  A 0.31 0.31 0.0 0 1 860.23 259.26
  Q 855.74 265.95 855.75 274.25
  Q 855.81 314.37 855.89 354.50
  C 855.90 359.49 855.76 364.98 860.48 368.09
  C 866.13 371.81 881.36 370.71 888.18 369.91
  C 902.12 368.28 907.75 360.21 915.44 349.94
  Q 916.66 348.31 915.93 350.21
  L 906.10 375.84
  Q 905.88 376.43 905.25 376.43
  L 836.99 376.40
  A 0.34 0.34 0.0 0 1 836.78 375.79
  Z"
/>
<path fill="#002b1d" d="
  M 1138.38 312.12
  Q 1138.62 292.81 1138.47 273.50
  Q 1138.41 265.63 1134.14 259.45
  A 0.42 0.41 -17.1 0 1 1134.49 258.80
  L 1153.75 258.79
  Q 1154.57 258.79 1154.11 259.47
  Q 1149.96 265.53 1149.94 273.25
  Q 1149.83 317.62 1149.95 362.00
  Q 1149.97 369.72 1154.23 375.95
  A 0.29 0.29 0.0 0 1 1153.99 376.41
  L 1134.34 376.42
  A 0.32 0.32 0.0 0 1 1134.08 375.92
  Q 1138.31 369.74 1138.37 362.00
  Q 1138.55 340.46 1138.44 318.94
  A 0.46 0.45 -0.0 0 0 1137.98 318.49
  L 1067.26 318.50
  Q 1066.77 318.50 1066.77 318.99
  Q 1066.61 339.95 1066.77 360.74
  Q 1066.83 369.58 1070.85 375.81
  Q 1071.23 376.40 1070.52 376.40
  L 1051.30 376.40
  Q 1050.70 376.39 1051.02 375.89
  Q 1055.19 369.26 1055.21 360.50
  Q 1055.36 293.77 1055.20 272.82
  Q 1055.15 265.79 1050.93 259.40
  Q 1050.51 258.77 1051.26 258.77
  L 1070.71 258.77
  Q 1071.37 258.77 1071.00 259.33
  Q 1066.80 265.64 1066.77 273.24
  Q 1066.69 292.77 1066.74 312.22
  A 0.52 0.52 0.0 0 0 1067.26 312.74
  L 1137.74 312.75
  Q 1138.38 312.75 1138.38 312.12
  Z"
/>
<path fill="#002b1d" d="
  M 1321.03 318.74
  Q 1320.87 340.81 1321.16 362.88
  Q 1321.26 370.18 1325.37 375.92
  A 0.31 0.31 0.0 0 1 1325.12 376.41
  L 1305.51 376.42
  A 0.35 0.35 0.0 0 1 1305.22 375.87
  Q 1309.20 370.06 1309.25 362.75
  Q 1309.57 318.50 1309.48 274.25
  Q 1309.46 265.90 1305.31 259.38
  Q 1304.97 258.85 1305.60 258.84
  Q 1317.41 258.63 1334.99 258.91
  C 1347.20 259.10 1361.46 262.41 1369.69 271.10
  C 1377.34 279.18 1378.87 292.38 1372.97 302.03
  C 1368.17 309.91 1359.44 314.19 1350.97 316.93
  A 0.43 0.43 0.0 0 0 1350.77 317.62
  C 1362.42 331.71 1373.41 347.00 1386.88 359.39
  C 1391.64 363.77 1400.07 369.70 1406.50 369.51
  Q 1410.83 369.39 1412.71 369.33
  A 0.74 0.73 85.2 0 1 1413.46 369.97
  C 1413.97 373.41 1408.61 375.49 1406.12 375.93
  C 1395.81 377.74 1388.40 374.72 1380.46 367.52
  C 1365.15 353.64 1351.69 335.60 1338.53 319.00
  A 1.93 1.93 0.0 0 0 1337.01 318.26
  L 1321.51 318.26
  Q 1321.03 318.26 1321.03 318.74
  Z
  M 1342.99 311.97
  C 1358.24 309.34 1367.26 297.21 1362.94 281.78
  C 1358.45 265.76 1334.78 264.50 1321.56 264.66
  Q 1320.99 264.67 1320.99 265.24
  L 1321.00 311.95
  Q 1321.00 312.32 1321.37 312.33
  Q 1336.75 313.05 1342.99 311.97
  Z"
/>
<path fill="#002b1d" d="
  M 1422.64 375.80
  C 1425.99 370.42 1426.94 366.16 1426.95 359.75
  Q 1427.03 316.75 1426.93 273.75
  Q 1426.91 265.88 1422.71 259.35
  Q 1422.35 258.79 1423.02 258.79
  L 1442.47 258.80
  A 0.32 0.32 0.0 0 1 1442.73 259.30
  Q 1438.75 265.03 1438.70 272.25
  Q 1438.41 312.65 1438.44 353.05
  C 1438.45 363.34 1438.05 368.68 1442.71 375.97
  Q 1443.00 376.42 1442.46 376.42
  L 1422.98 376.41
  Q 1422.26 376.41 1422.64 375.80
  Z"
/>
<path fill="#ffffff" d="
  M 378.39 263.92
  C 377.06 263.18 374.93 262.27 373.83 261.31
  A 0.13 0.13 0.0 0 1 373.99 261.10
  L 378.74 263.85
  A 0.05 0.03 46.3 0 1 378.76 263.93
  Q 378.63 263.93 378.49 263.94
  Q 378.43 263.95 378.39 263.92
  Z"
/>
<path fill="#ffffff" d="
  M 1362.94 281.78
  C 1367.26 297.21 1358.24 309.34 1342.99 311.97
  Q 1336.75 313.05 1321.37 312.33
  Q 1321.00 312.32 1321.00 311.95
  L 1320.99 265.24
  Q 1320.99 264.67 1321.56 264.66
  C 1334.78 264.50 1358.45 265.76 1362.94 281.78
  Z"
/>
<path fill="#4f4b18" d="
  M 304.79 370.86
  C 314.58 343.89 331.13 318.10 348.64 295.46
  Q 349.27 294.65 349.17 295.68
  Q 347.30 315.32 342.52 360.48
  C 341.14 373.54 337.12 385.58 327.85 394.60
  C 310.54 411.46 287.70 404.76 276.84 385.26
  C 259.70 354.50 286.97 322.88 308.48 303.22
  Q 327.70 285.65 350.84 271.10
  Q 351.34 270.79 351.35 271.38
  C 351.38 274.30 351.11 276.67 349.46 279.29
  Q 329.67 310.73 314.40 344.61
  Q 308.70 357.26 304.55 370.48
  Q 304.47 370.73 304.49 370.90
  Q 304.56 371.49 304.79 370.86
  Z"
/>
<path fill="#ffffff" d="
  M 443.41 563.09
  C 455.49 564.26 467.23 562.73 478.16 557.28
  C 520.86 536.01 524.19 482.19 514.24 441.98
  C 497.52 374.42 453.90 317.59 398.35 276.89
  Q 398.31 276.87 398.32 276.66
  Q 398.32 276.58 398.32 276.50
  Q 398.32 276.43 398.43 276.51
  C 453.75 314.19 501.56 367.82 520.77 431.47
  C 532.30 469.69 533.86 516.95 502.30 546.30
  C 486.84 560.68 465.35 567.63 443.75 563.59
  Q 443.46 563.53 443.29 563.40
  A 0.18 0.17 67.0 0 1 443.41 563.09
  Z"
/>
<path fill="#ffffff" d="
  M 745.10 318.80
  L 763.13 279.64
  A 0.33 0.33 0.0 0 1 763.73 279.65
  L 781.22 319.05
  A 0.33 0.33 0.0 0 1 780.91 319.51
  L 745.40 319.27
  A 0.33 0.33 0.0 0 1 745.10 318.80
  Z"
/>
<path fill="#ffffff" d="
  M 1210.23 318.79
  L 1228.24 279.66
  A 0.34 0.34 0.0 0 1 1228.86 279.66
  L 1246.33 319.04
  A 0.34 0.34 0.0 0 1 1246.02 319.52
  L 1210.53 319.27
  A 0.34 0.34 0.0 0 1 1210.23 318.79
  Z"
/>
<path fill="#ffffff" d="
  M 956.30 318.98
  L 974.56 279.61
  A 0.31 0.31 0.0 0 1 975.13 279.62
  L 992.47 318.95
  A 0.31 0.31 0.0 0 1 992.19 319.38
  L 956.59 319.42
  A 0.31 0.31 0.0 0 1 956.30 318.98
  Z"
/>
<path fill="#ae5522" d="
  M 970.76 422.79
  C 938.24 422.60 911.88 439.78 903.59 472.29
  C 894.85 506.58 908.18 545.14 941.29 560.82
  C 961.54 570.41 990.06 571.40 1008.39 555.89
  Q 1013.65 551.44 1018.20 546.26
  Q 1018.84 545.53 1018.71 546.50
  L 1016.31 565.00
  A 1.42 1.40 -6.8 0 1 1015.41 566.13
  Q 991.74 575.08 967.50 574.73
  C 933.31 574.23 900.53 553.50 889.44 520.39
  Q 881.21 495.82 888.99 470.96
  Q 897.99 442.21 925.28 426.77
  Q 955.70 409.55 991.52 415.02
  Q 1007.23 417.41 1016.97 419.76
  A 0.72 0.72 0.0 0 1 1017.52 420.45
  L 1017.55 445.27
  A 0.34 0.34 0.0 0 1 1016.94 445.47
  C 1005.57 429.37 990.31 422.91 970.76 422.79
  Z"
/>
<path fill="#ae5522" d="
  M 642.15 486.53
  C 670.18 490.98 687.43 517.05 674.62 544.18
  C 665.08 564.37 643.84 570.66 622.81 571.08
  Q 604.05 571.45 585.27 571.15
  Q 584.55 571.14 585.09 570.65
  C 588.65 567.40 591.51 565.64 593.67 560.91
  Q 595.18 557.61 595.21 550.00
  Q 595.41 494.12 595.38 438.25
  Q 595.37 424.43 585.17 417.48
  Q 584.50 417.03 585.31 417.02
  C 597.01 416.88 611.07 416.73 620.59 417.21
  C 633.38 417.85 647.33 419.83 657.63 427.97
  C 666.77 435.20 669.98 448.56 668.49 459.75
  C 666.58 474.13 655.52 483.04 642.13 485.85
  A 0.35 0.35 0.0 0 0 642.15 486.53
  Z
  M 638.05 427.42
  Q 625.17 422.89 609.40 424.13
  Q 609.05 424.15 609.05 424.50
  L 609.10 483.01
  A 0.44 0.43 -89.3 0 0 609.52 483.45
  C 623.02 483.90 640.72 483.62 649.70 471.34
  C 658.12 459.83 656.94 439.18 644.64 430.93
  Q 640.93 428.43 638.05 427.42
  Z
  M 661.96 513.66
  C 652.99 492.80 630.04 488.88 609.62 490.88
  Q 609.12 490.93 609.12 491.43
  Q 609.05 519.96 608.95 548.50
  Q 608.93 555.24 610.80 558.66
  C 615.46 567.18 633.29 564.35 640.62 561.80
  C 661.26 554.63 670.63 533.81 661.96 513.66
  Z"
/>
<path fill="#ffffff" d="
  M 638.05 427.42
  Q 640.93 428.43 644.64 430.93
  C 656.94 439.18 658.12 459.83 649.70 471.34
  C 640.72 483.62 623.02 483.90 609.52 483.45
  A 0.44 0.43 -89.3 0 1 609.10 483.01
  L 609.05 424.50
  Q 609.05 424.15 609.40 424.13
  Q 625.17 422.89 638.05 427.42
  Z"
/>
<path fill="#ae5522" d="
  M 1438.45 471.98
  A 22.47 22.47 0.0 0 1 1415.98 494.45
  A 22.47 22.47 0.0 0 1 1393.51 471.98
  A 22.47 22.47 0.0 0 1 1415.98 449.51
  A 22.47 22.47 0.0 0 1 1438.45 471.98
  Z
  M 1435.26 472.00
  A 19.28 19.28 0.0 0 0 1415.98 452.72
  A 19.28 19.28 0.0 0 0 1396.70 472.00
  A 19.28 19.28 0.0 0 0 1415.98 491.28
  A 19.28 19.28 0.0 0 0 1435.26 472.00
  Z"
/>
<path fill="#ae5522" d="
  M 772.08 567.00
  C 746.08 553.00 736.58 521.29 745.71 493.52
  C 755.17 464.75 782.32 448.79 812.24 450.33
  C 841.59 451.85 862.90 473.75 865.86 502.61
  C 868.55 528.84 858.09 552.99 835.49 566.12
  C 816.39 577.21 791.50 577.45 772.08 567.00
  Z
  M 855.97 520.25
  C 856.98 485.93 831.95 454.61 795.50 458.62
  Q 773.33 461.05 760.97 479.44
  C 744.19 504.39 754.22 541.32 778.12 557.67
  C 809.35 579.04 854.79 560.61 855.97 520.25
  Z"
/>
<path fill="#ae5522" d="
  M 1067.40 520.18
  Q 1059.39 538.56 1051.59 557.02
  C 1049.74 561.38 1047.84 566.22 1050.81 570.63
  Q 1051.22 571.24 1050.49 571.24
  L 1031.78 571.24
  A 0.27 0.27 0.0 0 1 1031.65 570.74
  Q 1040.72 565.30 1045.16 555.22
  Q 1068.23 502.90 1091.26 450.78
  A 0.32 0.31 45.5 0 1 1091.84 450.79
  Q 1114.06 502.50 1136.33 554.28
  C 1139.52 561.70 1142.15 566.25 1148.21 570.55
  A 0.38 0.37 -27.1 0 1 1147.99 571.23
  L 1124.50 571.24
  A 0.43 0.43 0.0 0 1 1124.18 570.53
  C 1129.20 564.72 1126.80 560.82 1123.78 553.80
  Q 1116.59 537.08 1109.42 520.36
  A 0.98 0.97 4.2 0 0 1108.52 519.76
  L 1068.04 519.77
  Q 1067.58 519.77 1067.40 520.18
  Z
  M 1070.50 513.58
  A 0.34 0.34 0.0 0 0 1070.81 514.06
  L 1106.36 514.10
  A 0.34 0.34 0.0 0 0 1106.67 513.62
  L 1089.35 474.32
  A 0.34 0.34 0.0 0 0 1088.73 474.31
  L 1070.50 513.58
  Z"
/>
<path fill="#ffffff" d="
  M 1435.26 472.00
  A 19.28 19.28 0.0 0 1 1415.98 491.28
  A 19.28 19.28 0.0 0 1 1396.70 472.00
  A 19.28 19.28 0.0 0 1 1415.98 452.72
  A 19.28 19.28 0.0 0 1 1435.26 472.00
  Z
  M 1413.55 462.83
  Q 1420.78 460.32 1423.23 467.42
  Q 1423.40 467.93 1423.94 467.90
  L 1426.20 467.79
  Q 1426.86 467.76 1426.78 467.10
  C 1426.24 462.81 1423.55 460.08 1419.24 459.20
  C 1401.86 455.67 1398.68 481.30 1414.37 484.65
  Q 1422.89 486.47 1427.17 477.24
  A 0.66 0.66 0.0 0 0 1426.59 476.30
  L 1424.34 476.24
  Q 1423.70 476.22 1423.40 476.78
  Q 1419.91 483.25 1413.94 480.82
  C 1407.28 478.11 1406.89 465.13 1413.55 462.83
  Z"
/>
<path fill="#ae5522" d="
  M 717.54 567.58
  Q 718.26 569.01 719.06 570.68
  Q 719.32 571.22 718.72 571.22
  L 699.69 571.25
  Q 699.05 571.25 699.38 570.70
  Q 703.44 563.85 703.45 554.50
  Q 703.53 511.87 703.62 469.25
  Q 703.64 460.91 699.21 454.11
  A 0.37 0.37 0.0 0 1 699.52 453.53
  L 718.76 453.51
  A 0.36 0.36 0.0 0 1 719.06 454.06
  C 714.82 460.79 714.89 466.03 714.88 475.17
  Q 714.85 516.33 715.14 557.50
  Q 715.17 562.85 717.54 567.58
  Z"
/>
<path fill="#ae5522" d="
  M 1211.32 512.26
  Q 1224.81 529.65 1236.20 543.04
  Q 1242.83 550.84 1251.30 557.43
  C 1258.04 562.69 1263.91 565.37 1272.11 564.06
  A 1.59 1.58 14.2 0 1 1273.62 566.59
  C 1270.89 570.14 1266.90 570.88 1262.31 571.16
  C 1251.23 571.83 1243.97 565.80 1236.07 558.18
  C 1223.58 546.12 1210.56 528.34 1198.62 513.40
  A 1.14 1.11 70.1 0 0 1197.75 512.98
  L 1181.76 512.93
  Q 1181.27 512.92 1181.27 513.41
  Q 1181.26 524.12 1181.35 556.21
  Q 1181.37 564.25 1185.53 570.68
  Q 1185.89 571.23 1185.23 571.23
  L 1165.94 571.23
  Q 1165.38 571.23 1165.68 570.76
  Q 1169.86 564.17 1169.88 555.00
  Q 1169.98 512.88 1169.88 470.75
  Q 1169.85 460.94 1165.85 454.02
  Q 1165.60 453.60 1166.09 453.59
  Q 1179.84 453.39 1193.49 453.47
  C 1213.21 453.58 1240.79 462.11 1236.46 487.80
  C 1234.11 501.77 1223.54 507.14 1211.53 511.55
  Q 1210.94 511.76 1211.32 512.26
  Z
  M 1224.24 485.11
  C 1226.00 461.31 1198.83 459.47 1182.01 459.28
  A 0.72 0.72 0.0 0 0 1181.28 460.00
  L 1181.27 506.72
  Q 1181.27 507.08 1181.62 507.09
  C 1199.37 507.80 1222.51 508.39 1224.24 485.11
  Z"
/>
<path fill="#ae5522" d="
  M 1299.91 459.94
  L 1299.90 503.23
  A 0.58 0.58 0.0 0 0 1300.48 503.81
  Q 1316.86 503.83 1333.51 503.78
  Q 1339.40 503.77 1343.99 498.73
  A 0.40 0.40 0.0 0 1 1344.69 499.00
  L 1344.70 514.25
  Q 1344.70 515.16 1344.04 514.54
  C 1340.74 511.39 1337.73 509.86 1332.91 509.73
  Q 1316.70 509.27 1300.52 509.58
  Q 1300.00 509.59 1300.00 510.10
  Q 1299.75 530.68 1300.03 551.24
  C 1300.13 558.67 1301.47 563.32 1309.25 564.54
  C 1320.23 566.27 1332.77 566.08 1342.96 561.21
  C 1348.54 558.54 1353.93 553.70 1358.50 549.15
  A 0.20 0.19 -11.6 0 1 1358.82 549.36
  L 1350.38 570.65
  A 0.95 0.95 0.0 0 1 1349.50 571.24
  L 1281.27 571.23
  Q 1280.66 571.23 1281.09 570.80
  Q 1288.31 563.41 1288.38 553.25
  Q 1288.60 519.60 1288.39 472.51
  Q 1288.34 461.55 1281.11 453.92
  Q 1280.74 453.52 1281.28 453.52
  L 1345.30 453.52
  Q 1345.82 453.52 1345.82 454.05
  L 1345.78 468.27
  Q 1345.78 469.15 1345.20 468.48
  C 1340.24 462.75 1337.14 460.03 1329.70 459.65
  Q 1315.11 458.92 1300.50 459.33
  Q 1299.91 459.35 1299.91 459.94
  Z"
/>
<path fill="#ffffff" d="
  M 795.50 458.62
  C 831.95 454.61 856.98 485.93 855.97 520.25
  C 854.79 560.61 809.35 579.04 778.12 557.67
  C 754.22 541.32 744.19 504.39 760.97 479.44
  Q 773.33 461.05 795.50 458.62
  Z"
/>
<path fill="#ae5522" d="
  M 1413.55 462.83
  C 1406.89 465.13 1407.28 478.11 1413.94 480.82
  Q 1419.91 483.25 1423.40 476.78
  Q 1423.70 476.22 1424.34 476.24
  L 1426.59 476.30
  A 0.66 0.66 0.0 0 1 1427.17 477.24
  Q 1422.89 486.47 1414.37 484.65
  C 1398.68 481.30 1401.86 455.67 1419.24 459.20
  C 1423.55 460.08 1426.24 462.81 1426.78 467.10
  Q 1426.86 467.76 1426.20 467.79
  L 1423.94 467.90
  Q 1423.40 467.93 1423.23 467.42
  Q 1420.78 460.32 1413.55 462.83
  Z"
/>
<path fill="#ffffff" d="
  M 1182.01 459.28
  C 1198.83 459.47 1226.00 461.31 1224.24 485.11
  C 1222.51 508.39 1199.37 507.80 1181.62 507.09
  Q 1181.27 507.08 1181.27 506.72
  L 1181.28 460.00
  A 0.72 0.72 0.0 0 1 1182.01 459.28
  Z"
/>
<path fill="#ffffff" d="
  M 1070.50 513.58
  L 1088.73 474.31
  A 0.34 0.34 0.0 0 1 1089.35 474.32
  L 1106.67 513.62
  A 0.34 0.34 0.0 0 1 1106.36 514.10
  L 1070.81 514.06
  A 0.34 0.34 0.0 0 1 1070.50 513.58
  Z"
/>
<path fill="#ffffff" d="
  M 609.62 490.88
  C 630.04 488.88 652.99 492.80 661.96 513.66
  C 670.63 533.81 661.26 554.63 640.62 561.80
  C 633.29 564.35 615.46 567.18 610.80 558.66
  Q 608.93 555.24 608.95 548.50
  Q 609.05 519.96 609.12 491.43
  Q 609.12 490.93 609.62 490.88
  Z"
/>
</svg>
