<svg viewBox="0 0 1530 638" xmlns="http://www.w3.org/2000/svg"><g fill="none" stroke-width="2"><path d="m299.61 92.83q7.2 24.78 17.2 48.42 10.49 24.77 22.91 48.86.63 1.23.53-.15-2.21-30.34-4.89-61.17-1.1-12.59-2.56-18.95c-2.92-12.65-8.57-25.16-15.41-35.87-6.69-10.48-24.08-32.04-38.96-27.36-37.91 11.94 49.95 148.54 62.99 168.55a.29.29 0 0 0 .53-.14c.24-3.74-.25-6.67-1.9-10.29q-16.67-36.67-29.85-74.73-6.34-18.29-10.78-37.12a.1.1 0 0 1 .19-.05" stroke="#acd39f"/><path d="m139.11 123.49q2.41.59 3.17.9c62.07 25.6 120.82 60.12 176.27 97.78 3.61 2.45 6.55 3.81 10.5 4.79a.35.35 0 0 0 .33-.58c-26.42-26.77-54.72-51.53-84.66-74.09q-31.89-24.04-67.58-42.1-6.98-3.53-24.66-10.17-34.11-12.81-68.32-6.85c-37.5 6.53-4.44 31.94 7.22 39.5 30.91 20.03 63.62 35.26 98.55 46.83q53.03 17.56 104.62 35.52 2.71.94.39-.74c-48.66-35.28-101.53-68.33-155.85-90.71a.04.04 0 0 1 .02-.08" stroke="#80958e"/><path d="m417.92 146.97c-16.32 18.37-28.99 39.59-39.65 61.72a.25.25 0 0 0 .37.32q13.1-8.56 26.14-17.34 13.52-9.11 16.32-11.54 15.34-13.29 18.4-34.1c1.01-6.87-.99-16.36-7.06-20.48-14.52-9.84-29.68 12.31-36.53 22.19q-5.61 8.08-9.1 14.55-15.25 28.26-26.87 58.23a.33.33 0 0 0 .47.4c3.51-2 6.53-3.71 8.69-7.4 13.4-22.95 29.6-47.57 48.64-66.72a.12.12 0 0 1 .18.17" stroke="#9f9286"/><path d="m609.78 284.03q-.16-22.23.24-44.57c.15-8 2.82-11 6.52-16.69q.34-.52-.28-.52h-26.79a.43.43 0 0 0 -.32.72q7.07 7.75 7.04 18.53-.17 54.28-.18 108.57c0 11.49.07 17.77-6.82 25.59a.44.44 0 0 0 .33.74l26.97.02a.36.36 0 0 0 .27-.61c-7.35-8.09-6.98-14.91-6.99-27.14q-.01-26.43-.03-52.9 0-2.63 1.17-4.26 1.36-1.89 3.36-3.34.44-.32.76.13 23.63 33.17 47.45 66.21c5.55 7.68 14.16 18.34 23.26 20.81q7.7 2.09 15.64.23c4.18-.98 6.51-2.78 9.21-5.95q2.25-2.65-1.02-1.47c-4.22 1.51-13.19 2.26-17.35-.86-6.87-5.15-10.82-10.86-17.87-20.08q-25.53-33.4-50.97-67.11-.33-.44.05-.84 20.52-21.38 41.34-42.48 9.84-9.97 23.04-14.08a.25.25 0 0 0 -.07-.49l-27.27.09q-.71 0-.34.61 3.16 5.11-.87 9.38-24.46 25.94-49.08 51.92a.23.23 0 0 1 -.4-.16" stroke="#80958e"/><path d="m402.58 534.46c12.35 23.65 36.72 40.1 63.82 39.43 40.72-1.01 68.79-32.96 74.18-72.17 2.51-18.33.59-37.54-3.95-55.94-12.36-50.08-41.39-96.47-78.15-132.52-32.34-31.71-70.76-58.84-112.29-77.21a.14.13 80.3 0 0 -.15.22c24.42 27.2 44.82 61.2 58.51 92.81 15.35 35.44 2.9 66.15-7.25 101.28-3.59 12.43-6.23 24.42-7.55 36.13q-4.04 35.64 12.83 67.97" stroke="#d7aa91"/><path d="m163.48 283.36q26.45-9.09 56.91-14.69 51.79-9.52 100.83-12.33c3.7-.21 7.15-2.91 10.09-4.88a.4.4 0 0 0 -.16-.73c-36.78-4.76-213.78-23.78-216.15 38.52-.9 23.76 26.49 34.98 45.66 37.37q29.61 3.67 56.57-7.14 6.86-2.75 17.71-9.24 37.62-22.52 74.13-45.03 1.99-1.22-.35-1.19-51.54.59-100.72 8.52-20.9 3.37-44.45 11.03a.11.11 0 0 1 -.07-.21" stroke="#80b29c"/><path d="m742.71 325.12 40.5.04q.53 0 .73.48 7.78 17.96 15.49 35.96c2.4 5.6 3.58 9.53-.8 14a.47.46 22 0 0 .34.79l23.31.03a.5.49 62.6 0 0 .28-.9q-6.88-4.85-10.23-12.61-23.01-53.37-45.87-106.65a.43.43 0 0 0 -.79 0q-22.63 51.4-45.41 102.64c-3.55 7.98-7.09 12.72-14.15 16.96a.3.3 0 0 0 .16.56h18.5q.6 0 .34-.55-2.44-5.14.23-11.61 8-19.4 16.52-38.59.25-.55.85-.55" stroke="#80958e"/><path d="m953.95 325.12 40.77.02a.48.47 77.2 0 1 .43.28q7.82 18.16 15.7 36.5c2.39 5.55 3.21 9.23-.94 13.73a.45.45 0 0 0 .33.75l23.5.03a.45.45 0 0 0 .25-.82q-6.6-4.48-9.99-12.27-23.34-53.67-46.11-106.68-.55-1.28-1.11 0-22.68 51.45-44.42 100.46c-3.97 8.93-7.15 14.24-15 18.74a.28.28 0 0 0 .14.53l18.99.03q.65 0 .29-.54c-2.94-4.48-1.69-7.75.41-12.82q7.77-18.77 15.9-37.38.24-.56.86-.56" stroke="#80958e"/><path d="m1207.75 325.12 40.71.02a.61.61 0 0 1 .56.37q8.15 18.93 16.39 38.06 2.98 6.93-1.66 12.24-.52.59.27.59l23.49.03a.45.45 0 0 0 .26-.82q-6.55-4.62-9.76-12-23.42-53.73-46.51-107.45a.35.34 45.7 0 0 -.63-.01q-23.2 52.54-46.54 105.02-4.16 9.35-12.97 14.66a.29.29 0 0 0 .15.54l18.75.07q.63 0 .31-.55c-1.05-1.84-1.99-3.23-1.68-5.47q.5-3.73 1.74-6.73 5.94-14.35 16.37-38.07.21-.5.75-.5" stroke="#80958e"/><path d="m844.35 352.75c-.02 8.7-.55 17.53-7.57 23.04a.34.34 0 0 0 .21.61l68.26.03q.63 0 .85-.59l9.83-25.63q.73-1.9-.49-.27c-7.69 10.27-13.32 18.34-27.26 19.97-6.82.8-22.05 1.9-27.7-1.82-4.72-3.11-4.58-8.6-4.59-13.59q-.08-40.13-.14-80.25-.01-8.3 4.48-14.99a.31.31 0 0 0 -.26-.49l-19.48-.01a.49.49 0 0 0 -.4.77c3.66 5.41 4.2 10.36 4.22 17.53q.12 37.85.04 75.69" stroke="#80958e"/><path d="m1137.74 312.75-70.48-.01a.52.52 0 0 1 -.52-.52q-.05-19.45.03-38.98.03-7.6 4.23-13.91.37-.56-.29-.56h-19.45q-.75 0-.33.63 4.22 6.39 4.27 13.42.16 20.95.01 87.68-.02 8.76-4.19 15.39-.32.5.28.51h19.22q.71 0 .33-.59-4.02-6.23-4.08-15.07-.16-20.79 0-41.75 0-.49.49-.49l70.72-.01a.46.45-0 0 1 .46.45q.11 21.52-.07 43.06-.06 7.74-4.29 13.92a.32.32 0 0 0 .26.5l19.65-.01a.29.29 0 0 0 .24-.46q-4.26-6.23-4.28-13.95-.12-44.38-.01-88.75.02-7.72 4.17-13.78.46-.68-.36-.68l-19.26.01a.42.41-17.1 0 0 -.35.65q4.27 6.18 4.33 14.05.15 19.31-.09 38.62 0 .63-.64.63" stroke="#80958e"/><path d="m1321.51 318.26h15.5a1.93 1.93 0 0 1 1.52.74c13.16 16.6 26.62 34.64 41.93 48.52 7.94 7.2 15.35 10.22 25.66 8.41 2.49-.44 7.85-2.52 7.34-5.96a.74.73 85.2 0 0 -.75-.64q-1.88.06-6.21.18c-6.43.19-14.86-5.74-19.62-10.12-13.47-12.39-24.46-27.68-36.11-41.77a.43.43 0 0 1 .2-.69c8.47-2.74 17.2-7.02 22-14.9 5.9-9.65 4.37-22.85-3.28-30.93-8.23-8.69-22.49-12-34.7-12.19q-17.58-.28-29.39-.07-.63.01-.29.54 4.15 6.52 4.17 14.87.09 44.25-.23 88.5-.05 7.31-4.03 13.12a.35.35 0 0 0 .29.55l19.61-.01a.31.31 0 0 0 .25-.49q-4.11-5.74-4.21-13.04-.29-22.07-.13-44.14 0-.48.48-.48" stroke="#80958e"/><path d="m1426.95 359.75c-.01 6.41-.96 10.67-4.31 16.05q-.38.61.34.61l19.48.01q.54 0 .25-.45c-4.66-7.29-4.26-12.63-4.27-22.92q-.03-40.4.26-80.8.05-7.22 4.03-12.95a.32.32 0 0 0 -.26-.5l-19.45-.01q-.67 0-.31.56 4.2 6.53 4.22 14.4.1 43 .02 86" stroke="#80958e"/><path d="m304.49 370.9q-.02-.17.06-.42 4.15-13.22 9.85-25.87 15.27-33.88 35.06-65.32c1.65-2.62 1.92-4.99 1.89-7.91q-.01-.59-.51-.28-23.14 14.55-42.36 32.12c-21.51 19.66-48.78 51.28-31.64 82.04 10.86 19.5 33.7 26.2 51.01 9.34 9.27-9.02 13.29-21.06 14.67-34.12q4.78-45.16 6.65-64.8.1-1.03-.53-.22c-17.51 22.64-34.06 48.43-43.85 75.4q-.23.63-.3.04" stroke="#a7a58c"/><g stroke="#d7aa91"><path d="m903.59 472.29c8.29-32.51 34.65-49.69 67.17-49.5 19.55.12 34.81 6.58 46.18 22.68a.34.34 0 0 0 .61-.2l-.03-24.82a.72.72 0 0 0 -.55-.69q-9.74-2.35-25.45-4.74-35.82-5.47-66.24 11.75-27.29 15.44-36.29 44.19-7.78 24.86.45 49.43c11.09 33.11 43.87 53.84 78.06 54.34q24.24.35 47.91-8.6a1.42 1.4-6.8 0 0 .9-1.13l2.4-18.5q.13-.97-.51-.24-4.55 5.18-9.81 9.63c-18.33 15.51-46.85 14.52-67.1 4.93-33.11-15.68-46.44-54.24-37.7-88.53"/><path d="m642.15 486.53a.35.35 0 0 1 -.02-.68c13.39-2.81 24.45-11.72 26.36-26.1 1.49-11.19-1.72-24.55-10.86-31.78-10.3-8.14-24.25-10.12-37.04-10.76-9.52-.48-23.58-.33-35.28-.19q-.81.01-.14.46 10.2 6.95 10.21 20.77.03 55.87-.17 111.75-.03 7.61-1.54 10.91c-2.16 4.73-5.02 6.49-8.58 9.74q-.54.49.18.5 18.78.3 37.54-.07c21.03-.42 42.27-6.71 51.81-26.9 12.81-27.13-4.44-53.2-32.47-57.65"/><path d="m1438.45 471.98a22.47 22.47 0 0 0 -22.47-22.47 22.47 22.47 0 0 0 -22.47 22.47 22.47 22.47 0 0 0 22.47 22.47 22.47 22.47 0 0 0 22.47-22.47"/><path d="m772.08 567c19.42 10.45 44.31 10.21 63.41-.88 22.6-13.13 33.06-37.28 30.37-63.51-2.96-28.86-24.27-50.76-53.62-52.28-29.92-1.54-57.07 14.42-66.53 43.19-9.13 27.77.37 59.48 26.37 73.48"/><path d="m1068.04 519.77 40.48-.01a.98.97 24 0 1 .9.6q7.17 16.72 14.36 33.44c3.02 7.02 5.42 10.92.4 16.73a.43.43 0 0 0 .32.71l23.49-.01a.38.37-27.1 0 0 .22-.68c-6.06-4.3-8.69-8.85-11.88-16.27q-22.27-51.78-44.49-103.49a.32.31 45.5 0 0 -.58-.01q-23.03 52.12-46.1 104.44-4.44 10.08-13.51 15.52a.27.27 0 0 0 .13.5h18.71q.73 0 .32-.61c-2.97-4.41-1.07-9.25.78-13.61q7.8-18.46 15.81-36.84.18-.41.64-.41"/><path d="m717.54 567.58q-2.37-4.73-2.4-10.08-.29-41.17-.26-82.33c.01-9.14-.06-14.38 4.18-21.11a.36.36 0 0 0 -.3-.55l-19.24.02a.37.37 0 0 0 -.31.58q4.43 6.8 4.41 15.14-.09 42.62-.17 85.25-.01 9.35-4.07 16.2-.33.55.31.55l19.03-.03q.6 0 .34-.54-.8-1.67-1.52-3.1"/><path d="m1211.53 511.55c12.01-4.41 22.58-9.78 24.93-23.75 4.33-25.69-23.25-34.22-42.97-34.33q-13.65-.08-27.4.12-.49.01-.24.43 4 6.92 4.03 16.73.1 42.13 0 84.25-.02 9.17-4.2 15.76-.3.47.26.47h19.29q.66 0 .3-.55-4.16-6.43-4.18-14.47-.09-32.09-.08-42.8 0-.49.49-.48l15.99.05a1.14 1.11 70.1 0 1 .87.42c11.94 14.94 24.96 32.72 37.45 44.78 7.9 7.62 15.16 13.65 26.24 12.98 4.59-.28 8.58-1.02 11.31-4.57a1.59 1.58 14.2 0 0 -1.51-2.53c-8.2 1.31-14.07-1.37-20.81-6.63q-8.47-6.59-15.1-14.39-11.39-13.39-24.88-30.78-.38-.5.21-.71"/><path d="m1300.5 459.33q14.61-.41 29.2.32c7.44.38 10.54 3.1 15.5 8.83q.58.67.58-.21l.04-14.22q0-.53-.52-.53h-64.02q-.54 0-.17.4 7.23 7.63 7.28 18.59.21 47.09-.01 80.74-.07 10.16-7.29 17.55-.43.43.18.43l68.23.01a.95.95 0 0 0 .88-.59l8.44-21.29a.2.19-11.6 0 0 -.32-.21c-4.57 4.55-9.96 9.39-15.54 12.06-10.19 4.87-22.73 5.06-33.71 3.33-7.78-1.22-9.12-5.87-9.22-13.3q-.28-20.56-.03-41.14 0-.51.52-.52 16.18-.31 32.39.15c4.82.13 7.83 1.66 11.13 4.81q.66.62.66-.29l-.01-15.25a.4.4 0 0 0 -.7-.27q-4.59 5.04-10.48 5.05-16.65.05-33.03.03a.58.58 0 0 1 -.58-.58l.01-43.29q0-.59.59-.61"/><path d="m373.83 261.31c1.1.96 3.23 1.87 4.56 2.61q.04.03.1.02.14-.01.27-.01a.05.03 46.3 0 0 -.02-.08l-4.75-2.75a.13.13 0 0 0 -.16.21"/><path d="m478.16 557.28c-10.93 5.45-22.67 6.98-34.75 5.81a.18.17 67 0 0 -.12.31q.17.13.46.19c21.6 4.04 43.09-2.91 58.55-17.29 31.56-29.35 30-76.61 18.47-114.83-19.21-63.65-67.02-117.28-122.34-154.96q-.11-.08-.11-.01 0 .08 0 .16-.01.21.03.23c55.55 40.7 99.17 97.53 115.89 165.09 9.95 40.21 6.62 94.03-36.08 115.3"/></g><path d="m745.1 318.8a.33.33 0 0 0 .3.47l35.51.24a.33.33 0 0 0 .31-.46l-17.49-39.4a.33.33 0 0 0 -.6-.01z" stroke="#80958e"/><path d="m956.3 318.98a.31.31 0 0 0 .29.44l35.6-.04a.31.31 0 0 0 .28-.43l-17.34-39.33a.31.31 0 0 0 -.57-.01z" stroke="#80958e"/><path d="m1210.23 318.79a.34.34 0 0 0 .3.48l35.49.25a.34.34 0 0 0 .31-.48l-17.47-39.38a.34.34 0 0 0 -.62 0z" stroke="#80958e"/><path d="m1342.99 311.97c15.25-2.63 24.27-14.76 19.95-30.19-4.49-16.02-28.16-17.28-41.38-17.12q-.57.01-.57.58l.01 46.71q0 .37.37.38 15.38.72 21.62-.36" stroke="#80958e"/><path d="m638.05 427.42q-12.88-4.53-28.65-3.29-.35.02-.35.37l.05 58.51a.44.43-89.3 0 0 .42.44c13.5.45 31.2.17 40.18-12.11 8.42-11.51 7.24-32.16-5.06-40.41q-3.71-2.5-6.59-3.51" stroke="#d7aa91"/><path d="m661.96 513.66c-8.97-20.86-31.92-24.78-52.34-22.78q-.5.05-.5.55-.07 28.53-.17 57.07-.02 6.74 1.85 10.16c4.66 8.52 22.49 5.69 29.82 3.14 20.64-7.17 30.01-27.99 21.34-48.14" stroke="#d7aa91"/><path d="m1435.26 472a19.28 19.28 0 0 0 -19.28-19.28 19.28 19.28 0 0 0 -19.28 19.28 19.28 19.28 0 0 0 19.28 19.28 19.28 19.28 0 0 0 19.28-19.28" stroke="#d7aa91"/><path d="m855.97 520.25c1.01-34.32-24.02-65.64-60.47-61.63q-22.17 2.43-34.53 20.82c-16.78 24.95-6.75 61.88 17.15 78.23 31.23 21.37 76.67 2.94 77.85-37.42" stroke="#d7aa91"/><path d="m1070.5 513.58a.34.34 0 0 0 .31.48l35.55.04a.34.34 0 0 0 .31-.48l-17.32-39.3a.34.34 0 0 0 -.62-.01z" stroke="#d7aa91"/><path d="m1413.55 462.83q7.23-2.51 9.68 4.59.17.51.71.48l2.26-.11q.66-.03.58-.69c-.54-4.29-3.23-7.02-7.54-7.9-17.38-3.53-20.56 22.1-4.87 25.45q8.52 1.82 12.8-7.41a.66.66 0 0 0 -.58-.94l-2.25-.06q-.64-.02-.94.54-3.49 6.47-9.46 4.04c-6.66-2.71-7.05-15.69-.39-17.99" stroke="#d7aa91"/><path d="m1224.24 485.11c1.76-23.8-25.41-25.64-42.23-25.83a.72.72 0 0 0 -.73.72l-.01 46.72q0 .36.35.37c17.75.71 40.89 1.3 42.62-21.98" stroke="#d7aa91"/></g><path d="m0 0h1530v638h-1530zm299.61 92.83q7.2 24.78 17.2 48.42 10.49 24.77 22.91 48.86.63 1.23.53-.15-2.21-30.34-4.89-61.17-1.1-12.59-2.56-18.95c-2.92-12.65-8.57-25.16-15.41-35.87-6.69-10.48-24.08-32.04-38.96-27.36-37.91 11.94 49.95 148.54 62.99 168.55a.29.29 0 0 0 .53-.14c.24-3.74-.25-6.67-1.9-10.29q-16.67-36.67-29.85-74.73-6.34-18.29-10.78-37.12a.1.1 0 0 1 .19-.05zm-160.5 30.66q2.41.59 3.17.9c62.07 25.6 120.82 60.12 176.27 97.78 3.61 2.45 6.55 3.81 10.5 4.79a.35.35 0 0 0 .33-.58c-26.42-26.77-54.72-51.53-84.66-74.09q-31.89-24.04-67.58-42.1-6.98-3.53-24.66-10.17-34.11-12.81-68.32-6.85c-37.5 6.53-4.44 31.94 7.22 39.5 30.91 20.03 63.62 35.26 98.55 46.83q53.03 17.56 104.62 35.52 2.71.94.39-.74c-48.66-35.28-101.53-68.33-155.85-90.71a.04.04 0 0 1 .02-.08zm278.81 23.48c-16.32 18.37-28.99 39.59-39.65 61.72a.25.25 0 0 0 .37.32q13.1-8.56 26.14-17.34 13.52-9.11 16.32-11.54 15.34-13.29 18.4-34.1c1.01-6.87-.99-16.36-7.06-20.48-14.52-9.84-29.68 12.31-36.53 22.19q-5.61 8.08-9.1 14.55-15.25 28.26-26.87 58.23a.33.33 0 0 0 .47.4c3.51-2 6.53-3.71 8.69-7.4 13.4-22.95 29.6-47.57 48.64-66.72a.12.12 0 0 1 .18.17zm191.86 137.06q-.16-22.23.24-44.57c.15-8 2.82-11 6.52-16.69q.34-.52-.28-.52h-26.79a.43.43 0 0 0 -.32.72q7.07 7.75 7.04 18.53-.17 54.28-.18 108.57c0 11.49.07 17.77-6.82 25.59a.44.44 0 0 0 .33.74l26.97.02a.36.36 0 0 0 .27-.61c-7.35-8.09-6.98-14.91-6.99-27.14q-.01-26.43-.03-52.9 0-2.63 1.17-4.26 1.36-1.89 3.36-3.34.44-.32.76.13 23.63 33.17 47.45 66.21c5.55 7.68 14.16 18.34 23.26 20.81q7.7 2.09 15.64.23c4.18-.98 6.51-2.78 9.21-5.95q2.25-2.65-1.02-1.47c-4.22 1.51-13.19 2.26-17.35-.86-6.87-5.15-10.82-10.86-17.87-20.08q-25.53-33.4-50.97-67.11-.33-.44.05-.84 20.52-21.38 41.34-42.48 9.84-9.97 23.04-14.08a.25.25 0 0 0 -.07-.49l-27.27.09q-.71 0-.34.61 3.16 5.11-.87 9.38-24.46 25.94-49.08 51.92a.23.23 0 0 1 -.4-.16zm-207.2 250.43c12.35 23.65 36.72 40.1 63.82 39.43 40.72-1.01 68.79-32.96 74.18-72.17 2.51-18.33.59-37.54-3.95-55.94-12.36-50.08-41.39-96.47-78.15-132.52-32.34-31.71-70.76-58.84-112.29-77.21a.14.13 80.3 0 0 -.15.22c24.42 27.2 44.82 61.2 58.51 92.81 15.35 35.44 2.9 66.15-7.25 101.28-3.59 12.43-6.23 24.42-7.55 36.13q-4.04 35.64 12.83 67.97zm-239.1-251.1q26.45-9.09 56.91-14.69 51.79-9.52 100.83-12.33c3.7-.21 7.15-2.91 10.09-4.88a.4.4 0 0 0 -.16-.73c-36.78-4.76-213.78-23.78-216.15 38.52-.9 23.76 26.49 34.98 45.66 37.37q29.61 3.67 56.57-7.14 6.86-2.75 17.71-9.24 37.62-22.52 74.13-45.03 1.99-1.22-.35-1.19-51.54.59-100.72 8.52-20.9 3.37-44.45 11.03a.11.11 0 0 1 -.07-.21zm579.23 41.76 40.5.04q.53 0 .73.48 7.78 17.96 15.49 35.96c2.4 5.6 3.58 9.53-.8 14a.47.46 22 0 0 .34.79l23.31.03a.5.49 62.6 0 0 .28-.9q-6.88-4.85-10.23-12.61-23.01-53.37-45.87-106.65a.43.43 0 0 0 -.79 0q-22.63 51.4-45.41 102.64c-3.55 7.98-7.09 12.72-14.15 16.96a.3.3 0 0 0 .16.56h18.5q.6 0 .34-.55-2.44-5.14.23-11.61 8-19.4 16.52-38.59.25-.55.85-.55zm211.24 0 40.77.02a.48.47 77.2 0 1 .43.28q7.82 18.16 15.7 36.5c2.39 5.55 3.21 9.23-.94 13.73a.45.45 0 0 0 .33.75l23.5.03a.45.45 0 0 0 .25-.82q-6.6-4.48-9.99-12.27-23.34-53.67-46.11-106.68-.55-1.28-1.11 0-22.68 51.45-44.42 100.46c-3.97 8.93-7.15 14.24-15 18.74a.28.28 0 0 0 .14.53l18.99.03q.65 0 .29-.54c-2.94-4.48-1.69-7.75.41-12.82q7.77-18.77 15.9-37.38.24-.56.86-.56zm253.8 0 40.71.02a.61.61 0 0 1 .56.37q8.15 18.93 16.39 38.06 2.98 6.93-1.66 12.24-.52.59.27.59l23.49.03a.45.45 0 0 0 .26-.82q-6.55-4.62-9.76-12-23.42-53.73-46.51-107.45a.35.34 45.7 0 0 -.63-.01q-23.2 52.54-46.54 105.02-4.16 9.35-12.97 14.66a.29.29 0 0 0 .15.54l18.75.07q.63 0 .31-.55c-1.05-1.84-1.99-3.23-1.68-5.47q.5-3.73 1.74-6.73 5.94-14.35 16.37-38.07.21-.5.75-.5zm-363.4 27.63c-.02 8.7-.55 17.53-7.57 23.04a.34.34 0 0 0 .21.61l68.26.03q.63 0 .85-.59l9.83-25.63q.73-1.9-.49-.27c-7.69 10.27-13.32 18.34-27.26 19.97-6.82.8-22.05 1.9-27.7-1.82-4.72-3.11-4.58-8.6-4.59-13.59q-.08-40.13-.14-80.25-.01-8.3 4.48-14.99a.31.31 0 0 0 -.26-.49l-19.48-.01a.49.49 0 0 0 -.4.77c3.66 5.41 4.2 10.36 4.22 17.53q.12 37.85.04 75.69zm293.39-40-70.48-.01a.52.52 0 0 1 -.52-.52q-.05-19.45.03-38.98.03-7.6 4.23-13.91.37-.56-.29-.56h-19.45q-.75 0-.33.63 4.22 6.39 4.27 13.42.16 20.95.01 87.68-.02 8.76-4.19 15.39-.32.5.28.51h19.22q.71 0 .33-.59-4.02-6.23-4.08-15.07-.16-20.79 0-41.75 0-.49.49-.49l70.72-.01a.46.45-0 0 1 .46.45q.11 21.52-.07 43.06-.06 7.74-4.29 13.92a.32.32 0 0 0 .26.5l19.65-.01a.29.29 0 0 0 .24-.46q-4.26-6.23-4.28-13.95-.12-44.38-.01-88.75.02-7.72 4.17-13.78.46-.68-.36-.68l-19.26.01a.42.41-17.1 0 0 -.35.65q4.27 6.18 4.33 14.05.15 19.31-.09 38.62 0 .63-.64.63zm183.77 5.51h15.5a1.93 1.93 0 0 1 1.52.74c13.16 16.6 26.62 34.64 41.93 48.52 7.94 7.2 15.35 10.22 25.66 8.41 2.49-.44 7.85-2.52 7.34-5.96a.74.73 85.2 0 0 -.75-.64q-1.88.06-6.21.18c-6.43.19-14.86-5.74-19.62-10.12-13.47-12.39-24.46-27.68-36.11-41.77a.43.43 0 0 1 .2-.69c8.47-2.74 17.2-7.02 22-14.9 5.9-9.65 4.37-22.85-3.28-30.93-8.23-8.69-22.49-12-34.7-12.19q-17.58-.28-29.39-.07-.63.01-.29.54 4.15 6.52 4.17 14.87.09 44.25-.23 88.5-.05 7.31-4.03 13.12a.35.35 0 0 0 .29.55l19.61-.01a.31.31 0 0 0 .25-.49q-4.11-5.74-4.21-13.04-.29-22.07-.13-44.14 0-.48.48-.48zm105.44 41.49c-.01 6.41-.96 10.67-4.31 16.05q-.38.61.34.61l19.48.01q.54 0 .25-.45c-4.66-7.29-4.26-12.63-4.27-22.92q-.03-40.4.26-80.8.05-7.22 4.03-12.95a.32.32 0 0 0 -.26-.5l-19.45-.01q-.67 0-.31.56 4.2 6.53 4.22 14.4.1 43 .02 86zm-1122.46 11.15q-.02-.17.06-.42 4.15-13.22 9.85-25.87 15.27-33.88 35.06-65.32c1.65-2.62 1.92-4.99 1.89-7.91q-.01-.59-.51-.28-23.14 14.55-42.36 32.12c-21.51 19.66-48.78 51.28-31.64 82.04 10.86 19.5 33.7 26.2 51.01 9.34 9.27-9.02 13.29-21.06 14.67-34.12q4.78-45.16 6.65-64.8.1-1.03-.53-.22c-17.51 22.64-34.06 48.43-43.85 75.4q-.23.63-.3.04zm599.1 101.39c8.29-32.51 34.65-49.69 67.17-49.5 19.55.12 34.81 6.58 46.18 22.68a.34.34 0 0 0 .61-.2l-.03-24.82a.72.72 0 0 0 -.55-.69q-9.74-2.35-25.45-4.74-35.82-5.47-66.24 11.75-27.29 15.44-36.29 44.19-7.78 24.86.45 49.43c11.09 33.11 43.87 53.84 78.06 54.34q24.24.35 47.91-8.6a1.42 1.4-6.8 0 0 .9-1.13l2.4-18.5q.13-.97-.51-.24-4.55 5.18-9.81 9.63c-18.33 15.51-46.85 14.52-67.1 4.93-33.11-15.68-46.44-54.24-37.7-88.53zm-261.44 14.24a.35.35 0 0 1 -.02-.68c13.39-2.81 24.45-11.72 26.36-26.1 1.49-11.19-1.72-24.55-10.86-31.78-10.3-8.14-24.25-10.12-37.04-10.76-9.52-.48-23.58-.33-35.28-.19q-.81.01-.14.46 10.2 6.95 10.21 20.77.03 55.87-.17 111.75-.03 7.61-1.54 10.91c-2.16 4.73-5.02 6.49-8.58 9.74q-.54.49.18.5 18.78.3 37.54-.07c21.03-.42 42.27-6.71 51.81-26.9 12.81-27.13-4.44-53.2-32.47-57.65zm796.3-14.55a22.47 22.47 0 0 0 -22.47-22.47 22.47 22.47 0 0 0 -22.47 22.47 22.47 22.47 0 0 0 22.47 22.47 22.47 22.47 0 0 0 22.47-22.47zm-666.37 95.02c19.42 10.45 44.31 10.21 63.41-.88 22.6-13.13 33.06-37.28 30.37-63.51-2.96-28.86-24.27-50.76-53.62-52.28-29.92-1.54-57.07 14.42-66.53 43.19-9.13 27.77.37 59.48 26.37 73.48zm295.96-47.23 40.48-.01a.98.97 24 0 1 .9.6q7.17 16.72 14.36 33.44c3.02 7.02 5.42 10.92.4 16.73a.43.43 0 0 0 .32.71l23.49-.01a.38.37-27.1 0 0 .22-.68c-6.06-4.3-8.69-8.85-11.88-16.27q-22.27-51.78-44.49-103.49a.32.31 45.5 0 0 -.58-.01q-23.03 52.12-46.1 104.44-4.44 10.08-13.51 15.52a.27.27 0 0 0 .13.5h18.71q.73 0 .32-.61c-2.97-4.41-1.07-9.25.78-13.61q7.8-18.46 15.81-36.84.18-.41.64-.41zm-350.5 47.81q-2.37-4.73-2.4-10.08-.29-41.17-.26-82.33c.01-9.14-.06-14.38 4.18-21.11a.36.36 0 0 0 -.3-.55l-19.24.02a.37.37 0 0 0 -.31.58q4.43 6.8 4.41 15.14-.09 42.62-.17 85.25-.01 9.35-4.07 16.2-.33.55.31.55l19.03-.03q.6 0 .34-.54-.8-1.67-1.52-3.1zm493.99-56.03c12.01-4.41 22.58-9.78 24.93-23.75 4.33-25.69-23.25-34.22-42.97-34.33q-13.65-.08-27.4.12-.49.01-.24.43 4 6.92 4.03 16.73.1 42.13 0 84.25-.02 9.17-4.2 15.76-.3.47.26.47h19.29q.66 0 .3-.55-4.16-6.43-4.18-14.47-.09-32.09-.08-42.8 0-.49.49-.48l15.99.05a1.14 1.11 70.1 0 1 .87.42c11.94 14.94 24.96 32.72 37.45 44.78 7.9 7.62 15.16 13.65 26.24 12.98 4.59-.28 8.58-1.02 11.31-4.57a1.59 1.58 14.2 0 0 -1.51-2.53c-8.2 1.31-14.07-1.37-20.81-6.63q-8.47-6.59-15.1-14.39-11.39-13.39-24.88-30.78-.38-.5.21-.71zm88.97-52.22q14.61-.41 29.2.32c7.44.38 10.54 3.1 15.5 8.83q.58.67.58-.21l.04-14.22q0-.53-.52-.53h-64.02q-.54 0-.17.4 7.23 7.63 7.28 18.59.21 47.09-.01 80.74-.07 10.16-7.29 17.55-.43.43.18.43l68.23.01a.95.95 0 0 0 .88-.59l8.44-21.29a.2.19-11.6 0 0 -.32-.21c-4.57 4.55-9.96 9.39-15.54 12.06-10.19 4.87-22.73 5.06-33.71 3.33-7.78-1.22-9.12-5.87-9.22-13.3q-.28-20.56-.03-41.14 0-.51.52-.52 16.18-.31 32.39.15c4.82.13 7.83 1.66 11.13 4.81q.66.62.66-.29l-.01-15.25a.4.4 0 0 0 -.7-.27q-4.59 5.04-10.48 5.05-16.65.05-33.03.03a.58.58 0 0 1 -.58-.58l.01-43.29q0-.59.59-.61z" fill="#fff"/><path d="m299.42 92.88q4.44 18.83 10.78 37.12 13.18 38.06 29.85 74.73c1.65 3.62 2.14 6.55 1.9 10.29a.29.29 0 0 1 -.53.14c-13.04-20.01-100.9-156.61-62.99-168.55 14.88-4.68 32.27 16.88 38.96 27.36 6.84 10.71 12.49 23.22 15.41 35.87q1.46 6.36 2.56 18.95 2.68 30.83 4.89 61.17.1 1.38-.53.15-12.42-24.09-22.91-48.86-10-23.64-17.2-48.42a.1.1 0 0 0 -.19.05z" fill="#59a63f"/><path d="m139.09 123.57c54.32 22.38 107.19 55.43 155.85 90.71q2.32 1.68-.39.74-51.59-17.96-104.62-35.52c-34.93-11.57-67.64-26.8-98.55-46.83-11.66-7.56-44.72-32.97-7.22-39.5q34.21-5.96 68.32 6.85 17.68 6.64 24.66 10.17 35.69 18.06 67.58 42.1c29.94 22.56 58.24 47.32 84.66 74.09a.35.35 0 0 1 -.33.58c-3.95-.98-6.89-2.34-10.5-4.79-55.45-37.66-114.2-72.18-176.27-97.78q-.76-.31-3.17-.9a.04.04 0 0 0 -.02.08z" fill="#002b1d"/><path d="m417.74 146.8c-19.04 19.15-35.24 43.77-48.64 66.72-2.16 3.69-5.18 5.4-8.69 7.4a.33.33 0 0 1 -.47-.4q11.62-29.97 26.87-58.23 3.49-6.47 9.1-14.55c6.85-9.88 22.01-32.03 36.53-22.19 6.07 4.12 8.07 13.61 7.06 20.48q-3.06 20.81-18.4 34.1-2.8 2.43-16.32 11.54-13.04 8.78-26.14 17.34a.25.25 0 0 1 -.37-.32c10.66-22.13 23.33-43.35 39.65-61.72a.12.12 0 0 0 -.18-.17z" fill="#3f250c"/><path d="m609.78 284.03a.23.23 0 0 0 .4.16q24.62-25.98 49.08-51.92 4.03-4.27.87-9.38-.37-.61.34-.61l27.27-.09a.25.25 0 0 1 .07.49q-13.2 4.11-23.04 14.08-20.82 21.1-41.34 42.48-.38.4-.05.84 25.44 33.71 50.97 67.11c7.05 9.22 11 14.93 17.87 20.08 4.16 3.12 13.13 2.37 17.35.86q3.27-1.18 1.02 1.47c-2.7 3.17-5.03 4.97-9.21 5.95q-7.94 1.86-15.64-.23c-9.1-2.47-17.71-13.13-23.26-20.81q-23.82-33.04-47.45-66.21-.32-.45-.76-.13-2 1.45-3.36 3.34-1.17 1.63-1.17 4.26.02 26.47.03 52.9c.01 12.23-.36 19.05 6.99 27.14a.36.36 0 0 1 -.27.61l-26.97-.02a.44.44 0 0 1 -.33-.74c6.89-7.82 6.82-14.1 6.82-25.59q.01-54.29.18-108.57.03-10.78-7.04-18.53a.43.43 0 0 1 .32-.72h26.79q.62 0 .28.52c-3.7 5.69-6.37 8.69-6.52 16.69q-.4 22.34-.24 44.57z" fill="#002b1d"/><path d="m466.4 573.89c-27.1.67-51.47-15.78-63.82-39.43q-16.87-32.33-12.83-67.97c1.32-11.71 3.96-23.7 7.55-36.13 10.15-35.13 22.6-65.84 7.25-101.28-13.69-31.61-34.09-65.61-58.51-92.81a.14.13 80.3 0 1 .15-.22c41.53 18.37 79.95 45.5 112.29 77.21 36.76 36.05 65.79 82.44 78.15 132.52 4.54 18.4 6.46 37.61 3.95 55.94-5.39 39.21-33.46 71.16-74.18 72.17zm-92.57-312.58c1.1.96 3.23 1.87 4.56 2.61q.04.03.1.02.14-.01.27-.01a.05.03 46.3 0 0 -.02-.08l-4.75-2.75a.13.13 0 0 0 -.16.21zm104.33 295.97c-10.93 5.45-22.67 6.98-34.75 5.81a.18.17 67 0 0 -.12.31q.17.13.46.19c21.6 4.04 43.09-2.91 58.55-17.29 31.56-29.35 30-76.61 18.47-114.83-19.21-63.65-67.02-117.28-122.34-154.96q-.11-.08-.11-.01 0 .08 0 .16-.01.21.03.23c55.55 40.7 99.17 97.53 115.89 165.09 9.95 40.21 6.62 94.03-36.08 115.3z" fill="#ae5522"/><path d="m163.55 283.57q23.55-7.66 44.45-11.03 49.18-7.93 100.72-8.52 2.34-.03.35 1.19-36.51 22.51-74.13 45.03-10.85 6.49-17.71 9.24-26.96 10.81-56.57 7.14c-19.17-2.39-46.56-13.61-45.66-37.37 2.37-62.3 179.37-43.28 216.15-38.52a.4.4 0 0 1 .16.73c-2.94 1.97-6.39 4.67-10.09 4.88q-49.04 2.81-100.83 12.33-30.46 5.6-56.91 14.69a.11.11 0 0 0 .07.21z" fill="#006539"/><g fill="#002b1d"><path d="m741.86 325.67q-8.52 19.19-16.52 38.59-2.67 6.47-.23 11.61.26.55-.34.55h-18.5a.3.3 0 0 1 -.16-.56c7.06-4.24 10.6-8.98 14.15-16.96q22.78-51.24 45.41-102.64a.43.43 0 0 1 .79 0q22.86 53.28 45.87 106.65 3.35 7.76 10.23 12.61a.5.49 62.6 0 1 -.28.9l-23.31-.03a.47.46 22 0 1 -.34-.79c4.38-4.47 3.2-8.4.8-14q-7.71-18-15.49-35.96-.2-.48-.73-.48l-40.5-.04q-.6 0-.85.55zm3.24-6.87a.33.33 0 0 0 .3.47l35.51.24a.33.33 0 0 0 .31-.46l-17.49-39.4a.33.33 0 0 0 -.6-.01z"/><path d="m953.09 325.68q-8.13 18.61-15.9 37.38c-2.1 5.07-3.35 8.34-.41 12.82q.36.54-.29.54l-18.99-.03a.28.28 0 0 1 -.14-.53c7.85-4.5 11.03-9.81 15-18.74q21.74-49.01 44.42-100.46.56-1.28 1.11 0 22.77 53.01 46.11 106.68 3.39 7.79 9.99 12.27a.45.45 0 0 1 -.25.82l-23.5-.03a.45.45 0 0 1 -.33-.75c4.15-4.5 3.33-8.18.94-13.73q-7.88-18.34-15.7-36.5a.48.47 77.2 0 0 -.43-.28l-40.77-.02q-.62 0-.86.56zm3.21-6.7a.31.31 0 0 0 .29.44l35.6-.04a.31.31 0 0 0 .28-.43l-17.34-39.33a.31.31 0 0 0 -.57-.01z"/><path d="m1207 325.62q-10.43 23.72-16.37 38.07-1.24 3-1.74 6.73c-.31 2.24.63 3.63 1.68 5.47q.32.55-.31.55l-18.75-.07a.29.29 0 0 1 -.15-.54q8.81-5.31 12.97-14.66 23.34-52.48 46.54-105.02a.35.34 45.7 0 1 .63.01q23.09 53.72 46.51 107.45 3.21 7.38 9.76 12a.45.45 0 0 1 -.26.82l-23.49-.03q-.79 0-.27-.59 4.64-5.31 1.66-12.24-8.24-19.13-16.39-38.06a.61.61 0 0 0 -.56-.37l-40.71-.02q-.54 0-.75.5zm3.23-6.83a.34.34 0 0 0 .3.48l35.49.25a.34.34 0 0 0 .31-.48l-17.47-39.38a.34.34 0 0 0 -.62 0z"/><path d="m836.78 375.79c7.02-5.51 7.55-14.34 7.57-23.04q.08-37.84-.04-75.69c-.02-7.17-.56-12.12-4.22-17.53a.49.49 0 0 1 .4-.77l19.48.01a.31.31 0 0 1 .26.49q-4.49 6.69-4.48 14.99.06 40.12.14 80.25c.01 4.99-.13 10.48 4.59 13.59 5.65 3.72 20.88 2.62 27.7 1.82 13.94-1.63 19.57-9.7 27.26-19.97q1.22-1.63.49.27l-9.83 25.63q-.22.59-.85.59l-68.26-.03a.34.34 0 0 1 -.21-.61z"/><path d="m1138.38 312.12q.24-19.31.09-38.62-.06-7.87-4.33-14.05a.42.41-17.1 0 1 .35-.65l19.26-.01q.82 0 .36.68-4.15 6.06-4.17 13.78-.11 44.37.01 88.75.02 7.72 4.28 13.95a.29.29 0 0 1 -.24.46l-19.65.01a.32.32 0 0 1 -.26-.5q4.23-6.18 4.29-13.92.18-21.54.07-43.06a.46.45-0 0 0 -.46-.45l-70.72.01q-.49 0-.49.49-.16 20.96 0 41.75.06 8.84 4.08 15.07.38.59-.33.59h-19.22q-.6-.01-.28-.51 4.17-6.63 4.19-15.39.15-66.73-.01-87.68-.05-7.03-4.27-13.42-.42-.63.33-.63h19.45q.66 0 .29.56-4.2 6.31-4.23 13.91-.08 19.53-.03 38.98a.52.52 0 0 0 .52.52l70.48.01q.64 0 .64-.63z"/><path d="m1321.03 318.74q-.16 22.07.13 44.14.1 7.3 4.21 13.04a.31.31 0 0 1 -.25.49l-19.61.01a.35.35 0 0 1 -.29-.55q3.98-5.81 4.03-13.12.32-44.25.23-88.5-.02-8.35-4.17-14.87-.34-.53.29-.54 11.81-.21 29.39.07c12.21.19 26.47 3.5 34.7 12.19 7.65 8.08 9.18 21.28 3.28 30.93-4.8 7.88-13.53 12.16-22 14.9a.43.43 0 0 0 -.2.69c11.65 14.09 22.64 29.38 36.11 41.77 4.76 4.38 13.19 10.31 19.62 10.12q4.33-.12 6.21-.18a.74.73 85.2 0 1 .75.64c.51 3.44-4.85 5.52-7.34 5.96-10.31 1.81-17.72-1.21-25.66-8.41-15.31-13.88-28.77-31.92-41.93-48.52a1.93 1.93 0 0 0 -1.52-.74h-15.5q-.48 0-.48.48zm21.96-6.77c15.25-2.63 24.27-14.76 19.95-30.19-4.49-16.02-28.16-17.28-41.38-17.12q-.57.01-.57.58l.01 46.71q0 .37.37.38 15.38.72 21.62-.36z"/><path d="m1422.64 375.8c3.35-5.38 4.3-9.64 4.31-16.05q.08-43-.02-86-.02-7.87-4.22-14.4-.36-.56.31-.56l19.45.01a.32.32 0 0 1 .26.5q-3.98 5.73-4.03 12.95-.29 40.4-.26 80.8c.01 10.29-.39 15.63 4.27 22.92q.29.45-.25.45l-19.48-.01q-.72 0-.34-.61z"/></g><path d="m378.39 263.92c-1.33-.74-3.46-1.65-4.56-2.61a.13.13 0 0 1 .16-.21l4.75 2.75a.05.03 46.3 0 1 .02.08q-.13 0-.27.01-.06.01-.1-.02z" fill="#fff"/><path d="m1362.94 281.78c4.32 15.43-4.7 27.56-19.95 30.19q-6.24 1.08-21.62.36-.37-.01-.37-.38l-.01-46.71q0-.57.57-.58c13.22-.16 36.89 1.1 41.38 17.12z" fill="#fff"/><path d="m304.79 370.86c9.79-26.97 26.34-52.76 43.85-75.4q.63-.81.53.22-1.87 19.64-6.65 64.8c-1.38 13.06-5.4 25.1-14.67 34.12-17.31 16.86-40.15 10.16-51.01-9.34-17.14-30.76 10.13-62.38 31.64-82.04q19.22-17.57 42.36-32.12.5-.31.51.28c.03 2.92-.24 5.29-1.89 7.91q-19.79 31.44-35.06 65.32-5.7 12.65-9.85 25.87-.08.25-.06.42.07.59.3-.04z" fill="#4f4b18"/><path d="m443.41 563.09c12.08 1.17 23.82-.36 34.75-5.81 42.7-21.27 46.03-75.09 36.08-115.3-16.72-67.56-60.34-124.39-115.89-165.09q-.04-.02-.03-.23 0-.08 0-.16 0-.07.11.01c55.32 37.68 103.13 91.31 122.34 154.96 11.53 38.22 13.09 85.48-18.47 114.83-15.46 14.38-36.95 21.33-58.55 17.29q-.29-.06-.46-.19a.18.17 67 0 1 .12-.31z" fill="#fff"/><path d="m745.1 318.8 18.03-39.16a.33.33 0 0 1 .6.01l17.49 39.4a.33.33 0 0 1 -.31.46l-35.51-.24a.33.33 0 0 1 -.3-.47z" fill="#fff"/><path d="m1210.23 318.79 18.01-39.13a.34.34 0 0 1 .62 0l17.47 39.38a.34.34 0 0 1 -.31.48l-35.49-.25a.34.34 0 0 1 -.3-.48z" fill="#fff"/><path d="m956.3 318.98 18.26-39.37a.31.31 0 0 1 .57.01l17.34 39.33a.31.31 0 0 1 -.28.43l-35.6.04a.31.31 0 0 1 -.29-.44z" fill="#fff"/><path d="m970.76 422.79c-32.52-.19-58.88 16.99-67.17 49.5-8.74 34.29 4.59 72.85 37.7 88.53 20.25 9.59 48.77 10.58 67.1-4.93q5.26-4.45 9.81-9.63.64-.73.51.24l-2.4 18.5a1.42 1.4-6.8 0 1 -.9 1.13q-23.67 8.95-47.91 8.6c-34.19-.5-66.97-21.23-78.06-54.34q-8.23-24.57-.45-49.43 9-28.75 36.29-44.19 30.42-17.22 66.24-11.75 15.71 2.39 25.45 4.74a.72.72 0 0 1 .55.69l.03 24.82a.34.34 0 0 1 -.61.2c-11.37-16.1-26.63-22.56-46.18-22.68z" fill="#ae5522"/><path d="m642.15 486.53c28.03 4.45 45.28 30.52 32.47 57.65-9.54 20.19-30.78 26.48-51.81 26.9q-18.76.37-37.54.07-.72-.01-.18-.5c3.56-3.25 6.42-5.01 8.58-9.74q1.51-3.3 1.54-10.91.2-55.88.17-111.75-.01-13.82-10.21-20.77-.67-.45.14-.46c11.7-.14 25.76-.29 35.28.19 12.79.64 26.74 2.62 37.04 10.76 9.14 7.23 12.35 20.59 10.86 31.78-1.91 14.38-12.97 23.29-26.36 26.1a.35.35 0 0 0 .02.68zm-4.1-59.11q-12.88-4.53-28.65-3.29-.35.02-.35.37l.05 58.51a.44.43-89.3 0 0 .42.44c13.5.45 31.2.17 40.18-12.11 8.42-11.51 7.24-32.16-5.06-40.41q-3.71-2.5-6.59-3.51zm23.91 86.24c-8.97-20.86-31.92-24.78-52.34-22.78q-.5.05-.5.55-.07 28.53-.17 57.07-.02 6.74 1.85 10.16c4.66 8.52 22.49 5.69 29.82 3.14 20.64-7.17 30.01-27.99 21.34-48.14z" fill="#ae5522"/><path d="m638.05 427.42q2.88 1.01 6.59 3.51c12.3 8.25 13.48 28.9 5.06 40.41-8.98 12.28-26.68 12.56-40.18 12.11a.44.43-89.3 0 1 -.42-.44l-.05-58.51q0-.35.35-.37 15.77-1.24 28.65 3.29z" fill="#fff"/><path d="m1438.45 471.98a22.47 22.47 0 0 1 -22.47 22.47 22.47 22.47 0 0 1 -22.47-22.47 22.47 22.47 0 0 1 22.47-22.47 22.47 22.47 0 0 1 22.47 22.47zm-3.19.02a19.28 19.28 0 0 0 -19.28-19.28 19.28 19.28 0 0 0 -19.28 19.28 19.28 19.28 0 0 0 19.28 19.28 19.28 19.28 0 0 0 19.28-19.28z" fill="#ae5522"/><path d="m772.08 567c-26-14-35.5-45.71-26.37-73.48 9.46-28.77 36.61-44.73 66.53-43.19 29.35 1.52 50.66 23.42 53.62 52.28 2.69 26.23-7.77 50.38-30.37 63.51-19.1 11.09-43.99 11.33-63.41.88zm83.89-46.75c1.01-34.32-24.02-65.64-60.47-61.63q-22.17 2.43-34.53 20.82c-16.78 24.95-6.75 61.88 17.15 78.23 31.23 21.37 76.67 2.94 77.85-37.42z" fill="#ae5522"/><path d="m1067.4 520.18q-8.01 18.38-15.81 36.84c-1.85 4.36-3.75 9.2-.78 13.61q.41.61-.32.61h-18.71a.27.27 0 0 1 -.13-.5q9.07-5.44 13.51-15.52 23.07-52.32 46.1-104.44a.32.31 45.5 0 1 .58.01q22.22 51.71 44.49 103.49c3.19 7.42 5.82 11.97 11.88 16.27a.38.37-27.1 0 1 -.22.68l-23.49.01a.43.43 0 0 1 -.32-.71c5.02-5.81 2.62-9.71-.4-16.73q-7.19-16.72-14.36-33.44a.98.97 4.2 0 0 -.9-.6l-40.48.01q-.46 0-.64.41zm3.1-6.6a.34.34 0 0 0 .31.48l35.55.04a.34.34 0 0 0 .31-.48l-17.32-39.3a.34.34 0 0 0 -.62-.01z" fill="#ae5522"/><path d="m1435.26 472a19.28 19.28 0 0 1 -19.28 19.28 19.28 19.28 0 0 1 -19.28-19.28 19.28 19.28 0 0 1 19.28-19.28 19.28 19.28 0 0 1 19.28 19.28zm-21.71-9.17q7.23-2.51 9.68 4.59.17.51.71.48l2.26-.11q.66-.03.58-.69c-.54-4.29-3.23-7.02-7.54-7.9-17.38-3.53-20.56 22.1-4.87 25.45q8.52 1.82 12.8-7.41a.66.66 0 0 0 -.58-.94l-2.25-.06q-.64-.02-.94.54-3.49 6.47-9.46 4.04c-6.66-2.71-7.05-15.69-.39-17.99z" fill="#fff"/><path d="m717.54 567.58q.72 1.43 1.52 3.1.26.54-.34.54l-19.03.03q-.64 0-.31-.55 4.06-6.85 4.07-16.2.08-42.63.17-85.25.02-8.34-4.41-15.14a.37.37 0 0 1 .31-.58l19.24-.02a.36.36 0 0 1 .3.55c-4.24 6.73-4.17 11.97-4.18 21.11q-.03 41.16.26 82.33.03 5.35 2.4 10.08z" fill="#ae5522"/><path d="m1211.32 512.26q13.49 17.39 24.88 30.78 6.63 7.8 15.1 14.39c6.74 5.26 12.61 7.94 20.81 6.63a1.59 1.58 14.2 0 1 1.51 2.53c-2.73 3.55-6.72 4.29-11.31 4.57-11.08.67-18.34-5.36-26.24-12.98-12.49-12.06-25.51-29.84-37.45-44.78a1.14 1.11 70.1 0 0 -.87-.42l-15.99-.05q-.49-.01-.49.48-.01 10.71.08 42.8.02 8.04 4.18 14.47.36.55-.3.55h-19.29q-.56 0-.26-.47 4.18-6.59 4.2-15.76.1-42.12 0-84.25-.03-9.81-4.03-16.73-.25-.42.24-.43 13.75-.2 27.4-.12c19.72.11 47.3 8.64 42.97 34.33-2.35 13.97-12.92 19.34-24.93 23.75q-.59.21-.21.71zm12.92-27.15c1.76-23.8-25.41-25.64-42.23-25.83a.72.72 0 0 0 -.73.72l-.01 46.72q0 .36.35.37c17.75.71 40.89 1.3 42.62-21.98z" fill="#ae5522"/><path d="m1299.91 459.94-.01 43.29a.58.58 0 0 0 .58.58q16.38.02 33.03-.03 5.89-.01 10.48-5.05a.4.4 0 0 1 .7.27l.01 15.25q0 .91-.66.29c-3.3-3.15-6.31-4.68-11.13-4.81q-16.21-.46-32.39-.15-.52.01-.52.52-.25 20.58.03 41.14c.1 7.43 1.44 12.08 9.22 13.3 10.98 1.73 23.52 1.54 33.71-3.33 5.58-2.67 10.97-7.51 15.54-12.06a.2.19-11.6 0 1 .32.21l-8.44 21.29a.95.95 0 0 1 -.88.59l-68.23-.01q-.61 0-.18-.43 7.22-7.39 7.29-17.55.22-33.65.01-80.74-.05-10.96-7.28-18.59-.37-.4.17-.4h64.02q.52 0 .52.53l-.04 14.22q0 .88-.58.21c-4.96-5.73-8.06-8.45-15.5-8.83q-14.59-.73-29.2-.32-.59.02-.59.61z" fill="#ae5522"/><path d="m795.5 458.62c36.45-4.01 61.48 27.31 60.47 61.63-1.18 40.36-46.62 58.79-77.85 37.42-23.9-16.35-33.93-53.28-17.15-78.23q12.36-18.39 34.53-20.82z" fill="#fff"/><path d="m1413.55 462.83c-6.66 2.3-6.27 15.28.39 17.99q5.97 2.43 9.46-4.04.3-.56.94-.54l2.25.06a.66.66 0 0 1 .58.94q-4.28 9.23-12.8 7.41c-15.69-3.35-12.51-28.98 4.87-25.45 4.31.88 7 3.61 7.54 7.9q.08.66-.58.69l-2.26.11q-.54.03-.71-.48-2.45-7.1-9.68-4.59z" fill="#ae5522"/><path d="m1182.01 459.28c16.82.19 43.99 2.03 42.23 25.83-1.73 23.28-24.87 22.69-42.62 21.98q-.35-.01-.35-.37l.01-46.72a.72.72 0 0 1 .73-.72z" fill="#fff"/><path d="m1070.5 513.58 18.23-39.27a.34.34 0 0 1 .62.01l17.32 39.3a.34.34 0 0 1 -.31.48l-35.55-.04a.34.34 0 0 1 -.31-.48z" fill="#fff"/><path d="m609.62 490.88c20.42-2 43.37 1.92 52.34 22.78 8.67 20.15-.7 40.97-21.34 48.14-7.33 2.55-25.16 5.38-29.82-3.14q-1.87-3.42-1.85-10.16.1-28.54.17-57.07 0-.5.5-.55z" fill="#fff"/></svg>