<svg fill="none" height="15" viewBox="0 0 14 15" width="14" xmlns="http://www.w3.org/2000/svg"><g fill="#bf925a"><path d="m.291703 7.7917c-.161055 0-.291703-.13073-.291703-.2917 0-3.85995 3.14005-7 7-7 2.78543 0 5.0838 1.66187 6.6464 4.80662.0171.03427.0273.07157.0299.10977.0027.03819-.0022.07654-.0144.11284s-.0314.06984-.0566.0987c-.0251.02887-.0557.05249-.09.06952-.1448.07243-.3197.01293-.3908-.13117-1.0169-2.04523-2.9039-4.48298-6.1245-4.48298-3.53793 0-6.416703 2.87877-6.416703 6.4167 0 .16097-.130621.2917-.291594.2917z"/><path d="m13.7086 5.75h-2.3333c-.161 0-.2917-.13062-.2917-.29171 0-.16097.1307-.29159.2917-.29159h2.0417v-2.01723c0-.16097.1306-.29162.2916-.29162s.2917.13065.2917.29162v2.30882c0 .16106-.1307.29171-.2917.29171zm-6.70833 8.75c-2.78543 0-5.08381-1.6619-6.646449-4.80662-.017077-.03427-.027231-.07157-.029881-.10977-.002649-.0382.002258-.07654.01444-.11284.012183-.0363.031402-.06984.056559-.0987.025156-.02887.055757-.05249.09005-.06952.14525-.07295.319129-.0123.390825.13117 1.016836 2.04528 2.903876 4.48298 6.124456 4.48298 3.53793 0 6.41673-2.8788 6.41673-6.4167 0-.16098.1306-.29171.2916-.29171s.2917.13073.2917.29171c0 3.86-3.1401 7-7.00003 7z"/><path d="m.291703 12.1421c-.161055 0-.291703-.1306-.291703-.2916v-2.3088c0-.16105.130621-.2917.291703-.2917h2.333297c.16097 0 .2917.13062.2917.2917 0 .16098-.13073.2916-.2917.2916h-2.041703v2.0172c.000036.0383-.007482.0763-.022123.1117-.01464.0354-.036117.0675-.063201.0946s-.059243.0486-.094637.0632c-.035394.0147-.073329.0222-.111633.0221z"/></g></svg>