<svg fill="none" height="17" viewBox="0 0 16 17" width="16" xmlns="http://www.w3.org/2000/svg"><g fill="#bf925a"><path d="m5.58022 2.50075h2.0714c.44061 0 .44128-.66658 0-.66658h-2.0714c-.44061 0-.44128.66658 0 .66658z"/><path d="m15.9514 7.00113-1.7148-3.00095 1.7148-3.000615c.2189-.383285-.36-.712909-.5786-.330625l-1.7135 2.99795h-3.2319l-1.7131-2.99795c-.02906-.05108-.07115-.09354-.12197-.123049-.05082-.02951-.10856-.045013-.16733-.044929h-3.61853c-.05876-.000016-.11647.015517-.16728.045019-.05081.029503-.09291.071925-.12202.122959l-1.71345 2.99795h-2.473012c-.440611 0-.441277.66658 0 .66658h2.473012l1.61913 2.83364-1.71478 3.00099c-.02882.0503-.04399.1073-.04399.1653s.01517.115.04399.1653l1.71211 2.9959-1.50747 2.4987c-.2293.3803.34396.7199.57093.3443l1.51147-2.505h3.43056c.11965 0 .22997-.064.2893-.168l1.71343-2.9986h3.4246c.1196 0 .2299-.064.2893-.168l1.8094-3.16625c.0287-.05037.0438-.10737.0437-.16535 0-.05799-.0152-.11495-.044-.16527zm-10.95162-5.83359h3.23192l1.61845 2.83264-1.61845 2.83297h-3.23192l-1.6188-2.83297zm3.23225 11.99846h-3.23192l-1.61879-2.8326 1.61912-2.83367h3.23126l1.61879 2.83367zm5.42727-3.16659h-3.2319l-1.61878-2.83297 1.61848-2.83297h3.2319l1.6188 2.83297z"/><path d="m13.0791 8.66634h-2.0714c-.4406 0-.4413.66658 0 .66658h2.0714c.4406 0 .4413-.66658 0-.66658zm-7.80066-.3093-1.03454 1.81106c-.22064.3863.36162.711.57859.3307l1.03454-1.81113c.21897-.38295-.35995-.71291-.57859-.33063z"/></g></svg>