<svg fill="none" height="40" viewBox="0 0 40 40" width="40" xmlns="http://www.w3.org/2000/svg"><circle cx="20" cy="20" fill="#48c95f" r="20"/><path d="m27.9268 12.0625c-1.9756-1.9688-4.6097-3.0625-7.3902-3.0625-5.7805 0-10.4634 4.6667-10.4634 10.4271 0 1.8229.5122 3.6458 1.3902 5.1771l-1.4634 5.3958 5.561-1.4583c1.5366.8021 3.2195 1.2395 4.9756 1.2395 5.7805 0 10.4634-4.6666 10.4634-10.427-.0732-2.6979-1.0976-5.323-3.0732-7.2917zm-2.3414 11.0833c-.2195.5834-1.2439 1.1667-1.7561 1.2396-.4391.0729-1.0244.0729-1.6098-.0729-.3658-.1458-.878-.2917-1.4634-.5833-2.6341-1.0938-4.3171-3.7188-4.4634-3.9375-.1464-.1459-1.0976-1.3855-1.0976-2.698s.6586-1.8958.8781-2.1875c.2195-.2916.5122-.2916.7317-.2916h.5122c.1463 0 .3658-.0729.5853.4375.2196.5104.7317 1.8229.8049 1.8958.0732.1459.0732.2917 0 .4375s-.1463.2917-.2927.4375c-.1463.1458-.2927.3646-.3658.4375-.1464.1458-.2927.2917-.1464.5104.1464.2917.6586 1.0938 1.4635 1.8229 1.0243.875 1.8292 1.1667 2.1219 1.3126.2927.1458.439.0729.5854-.073.1463-.1458.6585-.7291.8048-1.0208.1464-.2917.3659-.2187.5854-.1458s1.5366.7291 1.7561.875c.2927.1458.439.2187.5122.2916.0732.2188.0732.7292-.1463 1.3125z" fill="#fff"/></svg>